<?xml version="1.0" encoding="UTF-8" standalone="no"?>
<!-- Created with Inkscape (http://www.inkscape.org/) -->
<svg xmlns:inkscape="http://www.inkscape.org/namespaces/inkscape" xmlns:rdf="http://www.w3.org/1999/02/22-rdf-syntax-ns#" xmlns="http://www.w3.org/2000/svg" xmlns:xlink="http://www.w3.org/1999/xlink" xmlns:ns1="http://sozi.baierouge.fr" xmlns:cc="http://creativecommons.org/ns#" xmlns:sodipodi="http://sodipodi.sourceforge.net/DTD/sodipodi-0.dtd" xmlns:dc="http://purl.org/dc/elements/1.1/" id="svg2" xml:space="preserve" viewBox="0 0 41.506 40.221" version="1.1" inkscape:version="0.91 r13725">
  <defs id="defs6">
    <linearGradient id="linearGradient24" y2="21.4" gradientUnits="userSpaceOnUse" x2="41.725" gradientTransform="matrix(.8 0 0 -.8 -.19494 32.253)" y1="21.4" x1="39.475">
      <stop id="stop26" style="stop-color:#d9cbb0" offset="0"/>
      <stop id="stop28" style="stop-color:#9c8e6e" offset="1"/>
    </linearGradient>
    <linearGradient id="linearGradient44" y2="35.639" gradientUnits="userSpaceOnUse" x2="40.562" gradientTransform="matrix(.8 0 0 -.8 -.19494 32.253)" y1="35.639" x1="39.438">
      <stop id="stop46" style="stop-color:#d9cbb0" offset="0"/>
      <stop id="stop48" style="stop-color:#9c8e6e" offset="1"/>
    </linearGradient>
    <linearGradient id="linearGradient62" y2="-15.108" gradientUnits="userSpaceOnUse" x2="41.87" gradientTransform="matrix(.17912 -.77968 -.77968 -.17912 -0.195 32.253)" y1="-15.108" x1="6.1377">
      <stop id="stop64" style="stop-color:#e3d7b7" offset="0"/>
      <stop id="stop66" style="stop-color:#7e7354" offset="1"/>
    </linearGradient>
    <radialGradient id="radialGradient82" gradientUnits="userSpaceOnUse" cy="-3.041" cx="29.555" gradientTransform="matrix(.33912 -.72456 .68808 .37824 4.0339 34.578)" r="19.46">
      <stop id="stop84" style="stop-color:#493e2d" offset="0"/>
      <stop id="stop86" style="stop-color:#564633" offset="1"/>
    </radialGradient>
    <radialGradient id="radialGradient102" gradientUnits="userSpaceOnUse" cy="-13.614" cx="16.637" gradientTransform="matrix(.33872 -.72472 1.0036 .55168 23.032 45.022)" r="13.522">
      <stop id="stop104" style="stop-color:#d9cbb0" offset="0"/>
      <stop id="stop106" style="stop-color:#9c8e6e" offset="1"/>
    </radialGradient>
    <linearGradient id="linearGradient126" y2="-21.13" gradientUnits="userSpaceOnUse" x2="17.341" gradientTransform="matrix(-.27848 -.75 -.75 .27848 -.19447 32.253)" y1="-21.13" x1="-3.4868">
      <stop id="stop128" style="stop-color:#3a311f" offset="0"/>
      <stop id="stop130" style="stop-color:#635534" offset="1"/>
    </linearGradient>
    <linearGradient id="linearGradient148" y2="36.05" gradientUnits="userSpaceOnUse" x2="21.113" gradientTransform="matrix(.8 0 0 -.8 -.19494 32.253)" y1="36.05" x1="17.288">
      <stop id="stop150" style="stop-color:#d9cbb0" offset="0"/>
      <stop id="stop152" style="stop-color:#9c8e6e" offset="1"/>
    </linearGradient>
    <linearGradient id="linearGradient166" y2="31.638" gradientUnits="userSpaceOnUse" x2="9.1748" gradientTransform="matrix(.8 0 0 -.8 -.19494 32.253)" y1="31.638" x1="2.9248">
      <stop id="stop168" style="stop-color:#d9cbb0" offset="0"/>
      <stop id="stop170" style="stop-color:#9c8e6e" offset="1"/>
    </linearGradient>
    <linearGradient id="linearGradient184" y2="35.225" gradientUnits="userSpaceOnUse" x2="10.45" gradientTransform="matrix(.8 0 0 -.8 -.19494 32.253)" y1="35.225" x1="2.9502">
      <stop id="stop186" style="stop-color:#d9cbb0" offset="0"/>
      <stop id="stop188" style="stop-color:#9c8e6e" offset="1"/>
    </linearGradient>
    <linearGradient id="linearGradient202" y2="39.029" gradientUnits="userSpaceOnUse" x2="22.213" gradientTransform="matrix(.8 0 0 -.8 -.19494 32.253)" y1="39.029" x1="18.588">
      <stop id="stop204" style="stop-color:#d9cbb0" offset="0"/>
      <stop id="stop206" style="stop-color:#9c8e6e" offset="1"/>
    </linearGradient>
    <linearGradient id="linearGradient220" y2="27.725" gradientUnits="userSpaceOnUse" x2="38.425" gradientTransform="matrix(.8 0 0 -.8 -.19494 32.253)" y1="27.725" x1="35.875">
      <stop id="stop222" style="stop-color:#d9cbb0" offset="0"/>
      <stop id="stop224" style="stop-color:#9c8e6e" offset="1"/>
    </linearGradient>
    <linearGradient id="linearGradient238" y2="34.8" gradientUnits="userSpaceOnUse" x2="35.538" gradientTransform="matrix(.8 0 0 -.8 -.19494 32.253)" y1="34.8" x1="28.263">
      <stop id="stop240" style="stop-color:#d9cbb0" offset="0"/>
      <stop id="stop242" style="stop-color:#9c8e6e" offset="1"/>
    </linearGradient>
    <linearGradient id="linearGradient256" y2="34.105" gradientUnits="userSpaceOnUse" x2="40.062" gradientTransform="matrix(.8 0 0 -.8 -.19494 32.253)" y1="34.105" x1="37.237">
      <stop id="stop258" style="stop-color:#d9cbb0" offset="0"/>
      <stop id="stop260" style="stop-color:#9c8e6e" offset="1"/>
    </linearGradient>
    <linearGradient id="linearGradient274" y2="36.735" gradientUnits="userSpaceOnUse" x2="29.425" gradientTransform="matrix(.8 0 0 -.8 -.19494 32.253)" y1="36.735" x1="27.275">
      <stop id="stop276" style="stop-color:#d9cbb0" offset="0"/>
      <stop id="stop278" style="stop-color:#9c8e6e" offset="1"/>
    </linearGradient>
    <linearGradient id="linearGradient292" y2="38.283" gradientUnits="userSpaceOnUse" x2="24.862" gradientTransform="matrix(.8 0 0 -.8 -.19494 32.253)" y1="38.283" x1="20.938">
      <stop id="stop294" style="stop-color:#d9cbb0" offset="0"/>
      <stop id="stop296" style="stop-color:#9c8e6e" offset="1"/>
    </linearGradient>
  </defs>
  <g id="g10" transform="matrix(1.25 0 0 -1.25 0 40.221)">
    <g id="g12">
      <g id="g14">
        <g id="g16">
          <g id="g22">
            <path id="path30" style="fill-rule:evenodd;fill:url(#linearGradient24)" d="m32.445 15.653 0.36-0.359 0.398-0.039v-0.121c-0.078-0.321-0.305-0.508-0.68-0.559-0.05 0-0.425 0.023-1.117 0.078-0.054 0.106-0.027 0.305 0.078 0.602 0.161 0.023 0.469 0.172 0.922 0.437l0.039-0.039z" inkscape:connector-curvature="0"/>
          </g>
        </g>
      </g>
      <path id="path32" style="fill-rule:evenodd;fill:#6e6850" d="m32.523 15.575-0.078 0.078v0.039l0.078-0.117zm0.563-12.16v-0.524c-0.027-0.105-0.082-0.238-0.16-0.398-0.321-0.051-0.574-0.012-0.762 0.121 0.106 0.426 0.414 0.692 0.922 0.801zm0.117 11.719c-0.051-0.508-0.293-0.801-0.719-0.879-0.078 0-0.453 0.039-1.121 0.117l0.043 0.281c0.692-0.055 1.067-0.078 1.117-0.078 0.375 0.051 0.602 0.238 0.68 0.559zm-3.437 8.961c-0.293 0.453-0.469 0.796-0.52 1.039 0.238 0.027 0.481 0.027 0.719 0-0.055 0.105-0.094 0.199-0.121 0.281l0.32-0.203c-0.105-0.16-0.211-0.438-0.32-0.84-0.024-0.106-0.051-0.199-0.078-0.277zm0.679-1.282 0.078 0.078 0.082-1c-0.027-0.265-0.16-0.625-0.402-1.078-0.051-0.105-0.09-0.215-0.117-0.32l-0.082 0.082c0.375 0.934 0.519 1.68 0.441 2.238zm-26.8-14c-0.161 0-0.333 0.012-0.52 0.039-0.453 0.082-0.695 0.293-0.719 0.641 0.024-0.051 0.067-0.105 0.117-0.16l0.082 0.16 1.04 0.48c-0.188-0.292-0.188-0.679 0-1.16zm3.281-4.84-0.563 0.282c0 0.023 0.016 0.051 0.043 0.078 0.078 0.109 0.145 0.336 0.199 0.68 0.055 0.402 0.172 0.828 0.36 1.281 0.265 0.668 0.281 1.508 0.039 2.519-0.024 0.078-0.039 0.149-0.039 0.2 0.16 0.082 0.305-0.188 0.441-0.801 0.211-0.879 0.239-1.625 0.078-2.239-0.054-0.105-0.093-0.199-0.121-0.281-0.183-0.453-0.304-0.879-0.359-1.277-0.024-0.188-0.051-0.336-0.078-0.442zm0.758-0.718 0.882-0.364c-0.961-0.023-1.816-0.039-2.562-0.039-1.414 0.028-2.227 0.11-2.438 0.243-0.136 0.078-0.242 0.171-0.32 0.277 0.426-0.051 1.16-0.094 2.199-0.117h2.239zm22.921 16.078c-0.027 0.133-0.054 0.254-0.082 0.359 0.028-0.023 0.055-0.051 0.082-0.078v-0.281zm0-0.641v-0.597c-0.242-0.403-0.558-0.762-0.96-1.082 0.027-0.133 0.054-0.266 0.082-0.399 0.211-1.414 0-2.789-0.641-4.121-0.266-0.559-0.707-1.187-1.32-1.879-0.856-1.039-1.336-1.629-1.442-1.762-0.664-0.879-1.265-1.464-1.801-1.757-0.691-0.403-1.453-0.454-2.277-0.161-0.055-0.027-0.109-0.054-0.16-0.082l-0.602-0.277c-0.531-0.32-1.148-0.801-1.839-1.441-0.372-0.348-0.598-0.536-0.68-0.559-0.133-0.027-0.453 0.023-0.961 0.156-0.906 0.43-1.574 0.696-2 0.801-0.426 0.109-0.719 0.082-0.879-0.078-0.398-0.32-0.641-0.496-0.719-0.52-0.508-0.269-1.242-0.359-2.203-0.281-0.078 0-0.199 0.012-0.359 0.039 0.828 0.188 1.547 0.735 2.16 1.641 0.773 1.332 1.387 2.265 1.84 2.801 0-0.161-0.133-0.575-0.399-1.243-0.187-0.503-0.187-0.918 0-1.238 0.188-0.293 0.586-0.562 1.2-0.801l1.402-0.519c0.851 0.906 1.465 1.492 1.84 1.758 0.293 0.187 0.492 0.297 0.597 0.32 0.106 0.027 0.336 0.066 0.68 0.121 0.215 0.055 0.602 0.082 1.16 0.082 0.508 0 0.879 0.039 1.121 0.117 0.375 0.133 0.813 0.375 1.321 0.719l0.8 0.641c1.067 0.988 2.039 2.425 2.918 4.32 0.348 0.773 0.508 1.652 0.481 2.641-0.027 0.535 0 0.867 0.082 1 0.051 0.132 0.265 0.347 0.637 0.64 0.347 0.215 0.574 0.36 0.679 0.438 0.11 0.109 0.188 0.297 0.242 0.562zm-16.8-15.64 1-0.438 1.879 0.399 0.121-0.239-1.961-0.48-1.239 0.64 0.2 0.118zm2.121 1.121 0.039 0.039 0.558-0.957-0.597 0.918zm-12.039 0.601-0.442-0.039-0.879 0.598l0.321 0.121 1-0.68zm13.359-3.679c0.293-0.055 0.625-0.067 1-0.043 0.586 0.054 1.012 0.187 1.277 0.402 0.137-0.055 0.282-0.121 0.442-0.199-0.188-0.403-0.653-0.629-1.399-0.68-0.347-0.027-0.64-0.027-0.882 0 0.109-0.082 0.214-0.187 0.32-0.32-0.078-0.028-0.133-0.028-0.16 0-0.024 0.078-0.051 0.133-0.078 0.16l0.121-0.402c-0.348-0.028-0.817-0.012-1.403 0.039-0.773 0.082-1.238 0.121-1.398 0.121-0.027 0.16 0.012 0.308 0.117 0.441 0.215-0.027 0.508-0.055 0.883-0.082 0.586-0.051 1.051-0.066 1.398-0.039l-0.121 0.398c0.028-0.05 0.055-0.105 0.082-0.16 0.028-0.05 0.078-0.066 0.16-0.039-0.132 0.16-0.253 0.293-0.359 0.403zm13.32 9.796 0.039 0.043 0.758-0.601-0.398-1.641c-0.133-0.105-0.426-0.16-0.879-0.16l-0.801 0.121c-0.426 0.215-0.625 0.414-0.601 0.602l0.082-0.043c0.214-0.133 0.464-0.199 0.757-0.199 0.457 0 0.801 0.039 1.043 0.121v1.757zm-8.921-8.238c0.214-0.027 0.519-0.051 0.921-0.078 0.344 0 0.598 0.117 0.758 0.359h0.16c-0.187-0.347-0.464-0.519-0.839-0.519-0.454 0.051-0.786 0.09-1 0.117v0.121zm1.839 2.121-0.281 0.239h0.043l0.238-0.239zm4.762-0.601 0.117-0.121c0.242-0.184 0.282-0.344 0.121-0.477-0.238-0.215-0.933-0.508-2.078-0.883-0.586 0.215-1.121 0.508-1.601 0.883l-0.16 0.117c0.402-0.265 0.812-0.492 1.242-0.679 1.25 0.453 2.011 0.812 2.277 1.078 0.027 0.027 0.055 0.054 0.082 0.082zm3.598 0.519 0.043-0.277c-0.481-0.32-0.922-0.414-1.321-0.281-0.453 0.132-0.773 0.48-0.961 1.039h0.161c0.187-0.348 0.453-0.586 0.8-0.719 0.399-0.133 0.825-0.055 1.278 0.238z" inkscape:connector-curvature="0"/>
      <g id="g34">
        <g id="g36">
          <g id="g42">
            <path id="path50" style="fill-rule:evenodd;fill:url(#linearGradient44)" d="m32.285 4.212v-0.52c-0.027-0.105-0.082-0.238-0.16-0.398-0.32-0.055-0.574-0.016-0.762 0.121 0.11 0.426 0.414 0.691 0.922 0.797z" inkscape:connector-curvature="0"/>
          </g>
        </g>
      </g>
      <g id="g52">
        <g id="g54">
          <g id="g60">
            <path id="path68" style="fill-rule:evenodd;fill:url(#linearGradient62)" d="m29.766 24.095c0-0.028 0.011-0.055 0.039-0.082 0.347-0.481 0.547-0.852 0.601-1.122 0-0.023 0.012-0.05 0.039-0.078 0.078-0.558-0.066-1.304-0.441-2.238l0.082-0.082c0.16-0.133 0.293-0.359 0.398-0.68 0.028-0.054 0.039-0.093 0.039-0.121 0.028-0.105 0.055-0.226 0.082-0.359 0.028-0.133 0.028-0.281 0-0.442v-0.199c-0.054-0.265-0.132-0.453-0.242-0.558-0.105-0.082-0.332-0.227-0.679-0.442-0.372-0.293-0.586-0.504-0.637-0.64-0.082-0.133-0.109-0.465-0.082-1 0.027-0.985-0.133-1.864-0.481-2.637-0.879-1.895-1.851-3.336-2.918-4.32l-0.8-0.641c-0.508-0.348-0.95-0.586-1.321-0.719-0.242-0.082-0.613-0.121-1.121-0.121-0.558 0-0.945-0.027-1.16-0.082-0.348-0.051-0.574-0.09-0.68-0.117-0.105-0.027-0.304-0.133-0.597-0.32-0.375-0.266-0.989-0.852-1.84-1.762l-1.402 0.519c-0.614 0.243-1.012 0.508-1.2 0.801-0.187 0.32-0.187 0.735 0 1.238 0.266 0.668 0.399 1.082 0.399 1.243-0.453-0.532-1.067-1.465-1.84-2.801-0.613-0.906-1.332-1.453-2.16-1.641-0.133-0.023-0.266-0.039-0.399-0.039-0.746 0.082-1.425 0.215-2.039 0.399-0.695 0.242-1.336 0.55-1.922 0.921 0.161 0.614 0.133 1.36-0.078 2.239-0.136 0.613-0.281 0.883-0.441 0.801-0.238 0.828-0.508 0.828-0.801 0-0.613-0.641-1.144-1.172-1.598-1.598-0.453 0.531-0.761 1-0.921 1.398-0.188 0.481-0.188 0.868 0 1.16l-1.04-0.48-0.082-0.16c-0.05 0.055-0.093 0.109-0.117 0.16-0.48 0.613-0.922 1.332-1.32 2.16-1.547 3.332-1.441 6.84 0.32 10.52 1.731 3.652 4.598 6.402 8.598 8.242 3.976 1.84 7.906 2.238 11.801 1.199 3.761-0.988 6.441-3.055 8.039-6.199 0.027-0.082 0.066-0.176 0.121-0.281-0.238 0.027-0.481 0.027-0.719 0 0.051-0.243 0.227-0.586 0.52-1.039zm-23.2 0.918c-0.402-0.532-0.734-1.122-1-1.758-0.109-0.27-0.214-0.547-0.32-0.84-0.32-0.75-0.535-1.348-0.641-1.801-0.132-0.562-0.187-1.199-0.16-1.922 0.028-0.746 0.133-1.371 0.321-1.879 0.132-0.48 0.707-1.121 1.718-1.922 0.879-0.691 1.735-1.25 2.563-1.679 0.691-0.371 1.637-0.52 2.84-0.438 1.039 0.051 2.066 0.25 3.078 0.598 0.695 0.187 1.387 0.453 2.082 0.801 2.265 1.093 3.863 2.707 4.797 4.84 0.562 1.281 0.789 2.535 0.679 3.761 0.055 1.387-0.304 2.68-1.078 3.879-0.105 0.133-0.535 0.465-1.281 1h0.039l-0.238 0.442c-0.133-0.082-0.238-0.11-0.32-0.082-0.161 0.105-0.293 0.199-0.399 0.281 0.027 0 0.066-0.016 0.117-0.039h0.043l-0.203 0.078h-0.039c-0.105 0.082-0.184 0.133-0.238 0.16-0.348 0.242-0.563 0.387-0.641 0.441-0.293 0.184-0.933 0.344-1.922 0.481-1.144 0.183-2.039 0.199-2.679 0.039-0.637-0.188-1.438-0.508-2.399-0.961-0.32-0.105-0.64-0.238-0.961-0.398-0.48-0.243-0.933-0.508-1.359-0.801-0.613-0.348-1.078-0.668-1.399-0.961-0.296-0.293-0.628-0.735-1-1.32z" inkscape:connector-curvature="0"/>
          </g>
        </g>
      </g>
      <path id="path70" style="fill-rule:evenodd;fill:#988d6e" d="m20.125 27.653c-0.187-0.027-0.332-0.012-0.441 0.039-0.239 0.055-0.426 0.082-0.559 0.082-0.16 0-0.332-0.066-0.52-0.199-0.082-0.055-0.214-0.148-0.402-0.281-0.133-0.082-0.265-0.133-0.398-0.16-0.16 0-0.293 0.011-0.399 0.039-0.109 0.054-0.187 0.093-0.242 0.121l-0.078 0.039c0.051 0 0.117-0.012 0.199-0.039 0.215-0.055 0.492 0.012 0.84 0.199l0.84 0.32h0.719l-0.36 0.078 0.602-0.117-0.321 0.239h0.04c0.082-0.028 0.187 0 0.32 0.082l0.238-0.442h-0.078zm-3.32-0.039c-0.106-0.027-0.215-0.082-0.321-0.16 0.055 0.027 0.176 0.012 0.36-0.039-0.024-0.027-0.051-0.055-0.078-0.082-0.082 0-0.161-0.027-0.243-0.078-0.05-0.028-0.093-0.055-0.117-0.082h-0.359c-0.32 0.16-0.563 0.199-0.723 0.121l-0.758-0.281-0.16-0.122c0.266 0.161 0.547 0.215 0.84 0.161-0.16-0.079-0.375-0.2-0.641-0.36-0.105-0.078-0.253-0.144-0.441-0.199 0.055 0.027 0.254 0.133 0.602 0.32-0.188-0.078-0.481-0.132-0.879-0.16-0.43-0.027-0.735-0.121-0.922-0.281-0.078-0.051-0.172-0.16-0.281-0.32l-0.52-0.278 0.281 0.278c0.375 0.429 0.641 0.683 0.801 0.761 0.238 0.133 0.641 0.305 1.199 0.52 0.028 0.027 0.375 0.105 1.039 0.242 0.188 0.051 0.481 0.094 0.879 0.117l-0.238 0.199 0.121 0.043c0.078-0.082 0.16-0.148 0.238-0.199 0.028 0 0.055-0.015 0.082-0.043 0.079-0.023 0.161-0.051 0.239-0.078zm2.359 0.719h0.039l0.203-0.078h-0.043c-0.051 0.023-0.093 0.039-0.117 0.039-0.215 0.027-0.441-0.039-0.68-0.199-0.32-0.27-0.562-0.403-0.722-0.403-0.321 0.11-0.571 0.149-0.758 0.121h-0.039c0.105 0.028 0.238 0.055 0.398 0.078 0.133 0 0.332 0.055 0.602 0.161 0.453 0.242 0.824 0.336 1.117 0.281zm-7.879-2.719c-0.105 0.211-0.187 0.359-0.238 0.438l0.238-0.797-0.281 0.679c-0.184 0.344-0.344 0.786-0.481 1.321l-0.078 0.48c0 0.024-0.054 0.09-0.16 0.199 0.106 0.051 0.215 0.106 0.32 0.161l0.122 0.039 0.039 0.039 0.16 0.121v-0.039c-0.082-0.297-0.121-0.586-0.121-0.883 0-0.184 0.082-0.453 0.242-0.797 0.023-0.215 0.105-0.535 0.238-0.961zm3.52-1.359c-0.028 0-0.055 0.011-0.078 0.039h-0.043l0.082 0.039c-0.133 0.082-0.254 0.148-0.36 0.199h0.039c0.321 0 0.586-0.051 0.801-0.16 0.133-0.051 0.348-0.199 0.641-0.438 0.183-0.027 0.476 0.094 0.879 0.36h0.757c0.11 0 0.321 0.054 0.641 0.16 0.242 0.078 0.453 0.094 0.641 0.039 0.425-0.133 0.734-0.332 0.922-0.602 0.132-0.21 0.304-0.382 0.519-0.519 0.481-0.32 0.758-0.547 0.84-0.68l0.039-0.117-0.359 0.398c-0.055 0.028-0.254 0.079-0.602 0.161l-0.68 0.441-0.199 0.477c-0.16 0.187-0.414 0.226-0.762 0.121 0.11 0 0.227-0.121 0.364-0.36l-0.043 0.039c-0.16 0.188-0.387 0.227-0.68 0.121-0.398-0.16-0.652-0.238-0.758-0.238-0.32 0.106-0.562 0.133-0.722 0.078l-0.481-0.238h-0.039l-0.16-0.043c-0.16 0.027-0.359 0.149-0.598 0.359-0.187 0.188-0.359 0.309-0.519 0.364h-0.082zm6.48 1.758 0.281-0.68c-0.136-0.559-0.066-1.52 0.2-2.879-0.082-0.082-0.161-0.121-0.243-0.121-0.105 0-0.211 0.039-0.32 0.121 0.109 0.105 0.16 0.172 0.16 0.199v0.719c-0.027 1.203-0.183 2.281-0.476 3.242-0.055 0.078-0.094 0.16-0.121 0.238v0.039l0.078-0.117c0.136-0.187 0.254-0.386 0.359-0.601 0.027-0.055 0.055-0.106 0.082-0.16zm-4.879-9.399c0.106 0.051 0.172 0.254 0.199 0.598 0.399-0.051 0.68-0.051 0.84 0 0.293 0.109 0.668 0.363 1.121 0.761 0.399 0.266 0.77 0.719 1.118 1.36 0.48 0.879 0.773 1.387 0.882 1.519l0.278 0.2-0.117-0.477c0-0.16-0.043-0.32-0.122-0.48l-0.242-0.321c-0.051-0.105-0.183-0.414-0.398-0.922-0.16-0.343-0.36-0.597-0.602-0.757-0.238-0.188-0.652-0.481-1.238-0.883-0.535-0.371-0.988-0.586-1.359-0.637l-0.36 0.039zm-6.601-0.723c0 0.028-0.012 0.055-0.039 0.082v0.321l0.558-0.199c0.082-0.028 0.254-0.149 0.52-0.36 0.187-0.16 0.359-0.254 0.519-0.281 0.215-0.027 0.75 0.078 1.602 0.32l0.961 0.36c0.371 0.16 0.625 0.293 0.758 0.398 0.187 0.188 0.242 0.441 0.16 0.762l-0.078 0.281 0.039-0.043-0.239 0.52c-0.32 0.535-0.535 0.988-0.64 1.363 0.105-0.43 0.386-1.043 0.84-1.84-0.082 0.051-0.176 0.172-0.282 0.359l-0.359 0.52c-0.398 0.691-0.719 1.414-0.961 2.16l-0.078 0.199 0.078-0.078c-0.211 0.504-0.359 0.879-0.437 1.117l-0.243 0.883c0.215-0.64 0.481-1.242 0.801-1.801 0.078-0.132 0.227-0.336 0.442-0.601 0.183-0.215 0.32-0.414 0.398-0.598l-0.281 0.317c-0.024-0.106-0.012-0.25 0.043-0.438-0.028 0.106-0.043 0.238-0.043 0.399l0.359-0.52 0.043-0.078 0.32-1.363c0.426-0.746 0.704-1.266 0.84-1.559 0.211-0.535 0.199-0.918-0.043-1.16-0.265-0.238-0.73-0.375-1.398-0.399-0.828-0.027-1.32-0.066-1.481-0.121l-0.359-0.16c-0.375 0-0.625 0.039-0.762 0.121-0.051 0.106-0.133 0.172-0.238 0.199-0.293 0.028-0.52 0.094-0.68 0.2-0.242 0.16-0.453 0.402-0.64 0.718zm6.922 3.563c-0.161-0.16-0.387-0.336-0.68-0.52-0.375-0.242-0.602-0.253-0.684-0.043-0.051 0.11 0.082 0.204 0.403 0.282 0.293 0.054 0.57 0.16 0.839 0.32l0.122-0.039zm-0.563-1.32c0.082 0.027 0.188 0.066 0.32 0.121-0.027-0.055-0.054-0.11-0.078-0.16-0.082-0.082-0.176-0.149-0.281-0.204-0.187-0.105-0.305-0.089-0.359 0.043l0.039 0.239c0.082-0.055 0.199-0.067 0.359-0.039zm1.039-0.121 1.16 0.64c-0.425-0.426-0.797-0.652-1.117-0.68l-0.043 0.04zm1.883 1.48c-0.188-0.215-0.293-0.238-0.32-0.078-0.028 0.16 0.066 0.277 0.281 0.359l0.039-0.281zm-11.121 5.922c0.082 0.105 0.172 0.172 0.281 0.199-0.027-0.082-0.094-0.199-0.199-0.359-0.055-0.11-0.067-0.203-0.043-0.282l-0.039 0.079c-0.078 0.109-0.078 0.226 0 0.363zm-0.559-1.563 0.321-0.039-0.524 0.239c-0.238 0.054-0.519 0.043-0.84-0.039l0.082 0.281h0.239c0.027 0 0.066-0.039 0.121-0.121 0.027-0.028 0.066-0.012 0.121 0.039l0.359 0.121c0.16 0.027 0.293-0.027 0.399-0.16 0.16-0.133 0.281-0.215 0.363-0.239 0.211-0.082 0.558 0.039 1.039 0.36 0.211 0.078 0.398 0.094 0.559 0.039 0.054-0.027 0.148-0.106 0.281-0.238 0.078-0.137 0.16-0.204 0.238-0.204l0.281 0.082-0.16-0.121 0.039-0.078c-0.051-0.054-0.172-0.027-0.359 0.078-0.215 0.188-0.332 0.282-0.36 0.282-0.187 0.078-0.468 0.011-0.839-0.2l0.359 0.039-0.441-0.199c-0.321-0.187-0.598-0.226-0.84-0.121l-0.438 0.199zm3.117-3.039c-0.105-0.105-0.25-0.215-0.437-0.32-0.133-0.078-0.199-0.227-0.199-0.441 0-0.317-0.028-0.504-0.082-0.559l-0.039-0.078 0.039 0.117c-0.16 0-0.321-0.199-0.481-0.598l-0.277-0.761c-0.082 0.375 0.039 0.855 0.359 1.441 0.024 0.027 0.051 0.199 0.078 0.52 0.028 0.187 0.149 0.386 0.36 0.601 0.375 0.238 0.601 0.426 0.679 0.559v0.398l0.122 0.68c0.105 0.269 0.226 0.469 0.359 0.601l0.082-0.199c-0.16-0.133-0.266-0.468-0.32-1 0-0.32-0.039-0.547-0.121-0.679-0.079-0.137-0.227-0.282-0.442-0.442l0.32 0.16zm2.762 3.602c-0.082 0.051-0.16 0.133-0.238 0.238-0.027 0.028-0.043 0.055-0.043 0.082l0.121 0.078v-0.121l0.441-0.238h0.118l-0.278-0.039h-0.121zm-5.558 0.558-0.122-0.082c-0.105 0.161-0.066 0.27 0.122 0.321v-0.239zm-1.762-2.398c0.027 0.266 0.133 0.547 0.32 0.84v-0.203c-0.027-0.239 0-0.637 0.078-1.199-0.027-1.122 0.496-2.028 1.563-2.719-0.133-0.055-0.348-0.067-0.641-0.039-0.265 0.023-0.453 0.023-0.558 0 0.371-0.989 0.636-1.574 0.796-1.762 0.137-0.16 0.254-0.254 0.364-0.281h0.519l0.68-0.078c-0.027-0.161-0.016-0.375 0.039-0.641-0.027-0.051-0.078-0.094-0.16-0.121-0.055-0.051-0.055-0.117 0-0.199-0.027-0.051-0.215-0.16-0.559-0.321h-0.242l-0.078 0.039-0.359 0.082c-0.161 0.055-0.282 0.145-0.364 0.282-0.293 0.504-0.519 0.879-0.679 1.117-0.239 0.348-0.414 0.656-0.52 0.922l-0.16 1.121c-0.024 0.211-0.066 0.465-0.117 0.758-0.028 0.133-0.055 0.265-0.082 0.402l-0.16 0.918c0.027 0.082 0.066 0.133 0.121 0.16v0.082c0.05 0.133 0.093 0.266 0.121 0.399 0.023 0.105 0.039 0.187 0.039 0.238 0 0.055 0.012 0.121 0.039 0.203zm6.922-4.523 0.437-0.239c-0.504-0.347-0.933-0.586-1.277-0.718-0.668-0.27-1.067-0.161-1.203 0.32 0.695 0.051 1.375 0.266 2.043 0.637zm-4.282 1.882c-0.054 0.106-0.066 0.2-0.039 0.278 0.051-0.106 0.118-0.145 0.2-0.117l0.039-0.321c-0.078 0.028-0.145 0.078-0.2 0.16zm0-1.48v-0.32c-0.214 0.027-0.347 0.199-0.402 0.519 0.055 0 0.188-0.066 0.402-0.199zm1.122-2.039-0.282 0.476v0.122c0.535-0.161 0.907-0.239 1.121-0.239l-0.839-0.359zm-2.161 5.039c-0.136 0.426-0.109 0.734 0.079 0.918 0.105-0.16 0.148-0.52 0.121-1.078 0.105-0.321 0.199-0.535 0.281-0.641-0.188 0.133-0.348 0.399-0.481 0.801z" inkscape:connector-curvature="0"/>
      <g id="g72">
        <g id="g74">
          <g id="g80">
            <path id="path88" style="fill-rule:evenodd;fill:url(#radialGradient82)" d="m20.766 26.852c-0.188 0.293-0.403 0.563-0.641 0.801h0.039c0.746-0.535 1.172-0.867 1.281-1 0.774-1.199 1.133-2.492 1.078-3.879-0.023-0.265-0.05-0.519-0.078-0.761-0.16-1.145-0.558-2.211-1.199-3.2-0.535-0.828-1.281-1.707-2.242-2.64-1.199-1.172-2.344-2.012-3.438-2.52-0.214-0.078-0.414-0.172-0.601-0.281-1.012-0.344-2.039-0.547-3.078-0.598-1.203-0.082-2.149 0.067-2.84 0.438-0.828 0.429-1.684 0.988-2.563 1.679-1.011 0.801-1.586 1.442-1.718 1.922-0.188 0.508-0.293 1.133-0.321 1.879-0.027 0.723 0.028 1.36 0.16 1.922 0.106 0.453 0.321 1.051 0.641 1.801 0.133 0.32 0.293 0.664 0.481 1.039 0.293 0.613 0.57 1.133 0.839 1.559 0.372 0.585 0.704 1.027 1 1.32 0.321 0.293 0.786 0.613 1.399 0.961 0.453 0.265 0.988 0.558 1.601 0.879 0.239 0.105 0.481 0.215 0.719 0.32 0.961 0.453 1.762 0.773 2.399 0.961 0.64 0.16 1.535 0.144 2.679-0.039 0.989-0.137 1.629-0.297 1.922-0.481 0.078-0.054 0.293-0.199 0.641-0.441-0.641 0.348-1.375 0.586-2.199 0.719-1.524 0.269-3.055 0.121-4.602-0.438-0.398-0.133-0.801-0.308-1.199-0.519v0.039l-0.16-0.121-0.039-0.039-0.122-0.039c-0.105-0.055-0.214-0.11-0.32-0.161-0.027 0-0.055-0.015-0.082-0.043-1.73-1.011-3.066-2.316-4-3.918v0.04l-0.039-0.079c-0.105-0.16-0.199-0.336-0.277-0.519-0.082-0.188-0.16-0.375-0.242-0.563l-0.079-0.117-0.519-1.844c-0.137-0.585-0.176-1.156-0.121-1.718 0.027-0.188 0.054-0.36 0.078-0.52l0.043-0.238c0.023-0.16 0.066-0.32 0.117-0.481l0.121-0.359c0.078-0.215 0.172-0.43 0.281-0.641 0.532-1.093 1.305-1.921 2.321-2.48 0.636-0.348 1.383-0.602 2.238-0.762 0.668-0.105 1.332-0.133 2-0.078 0.398 0.027 0.801 0.078 1.199 0.16l1.16 0.278c0.696 0.242 1.403 0.574 2.121 1 0.481 0.269 0.934 0.546 1.36 0.839l1.238 1.122 0.883 1.039c0.133 0.187 0.25 0.375 0.359 0.562 0.293 0.481 0.559 0.984 0.801 1.52 0.348 0.8 0.559 1.574 0.641 2.32 0.16 1.254-0.043 2.437-0.602 3.559-0.027 0.054-0.055 0.105-0.082 0.16-0.105 0.215-0.223 0.414-0.359 0.601l-0.078 0.117v-0.039z" inkscape:connector-curvature="0"/>
          </g>
        </g>
      </g>
      <path id="path90" style="fill-rule:evenodd;fill:#e3d7b7" d="m16.406 27.173c0.024 0.027 0.067 0.054 0.117 0.082 0.082 0.051 0.161 0.078 0.243 0.078 0.027 0.027 0.054 0.039 0.078 0.039 0.082 0 0.187-0.024 0.32-0.078 0.055-0.028 0.133-0.067 0.242-0.121 0.024-0.028 0.067-0.051 0.117-0.078h-0.839c-0.454 0-0.637-0.149-0.559-0.442-0.055-0.027-0.16 0.028-0.32 0.16-0.133 0.133-0.239 0.2-0.321 0.2-0.078 0.027-0.16 0.039-0.238 0.039-0.293 0.054-0.574 0-0.84-0.161l0.16 0.122 0.758 0.281c0.16 0.078 0.403 0.039 0.723-0.121 0.055 0 0.094-0.016 0.117-0.039 0.055 0 0.133 0.011 0.242 0.039zm-0.082 1.519c0.215 0.028 0.426 0.016 0.641-0.039l0.121-0.238c0.051-0.215-0.227-0.215-0.84 0-0.215 0.16-0.187 0.254 0.078 0.277zm-0.16-5.117h0.039c0.137 0.023 0.297 0.094 0.481 0.199 0.187 0.051 0.375 0.039 0.562-0.039-0.348 0.106-0.629-0.015-0.84-0.363-0.136-0.184-0.293-0.492-0.48-0.918l-0.082-0.082c-0.078 0.297-0.172 0.496-0.278 0.601l-0.043 0.04c-0.16 0.105-0.265 0.199-0.32 0.281-0.133 0.347-0.293 0.558-0.476 0.64-0.11 0.051-0.227 0.051-0.364 0-0.16-0.054-0.277-0.082-0.359-0.082l-0.199 0.082h-0.121l-0.079-0.082-0.48 0.121v0.122h0.078l0.242-0.043-0.082 0.043 0.321-0.043c0.136 0 0.32 0.054 0.562 0.16 0.133 0.054 0.277 0.082 0.438 0.082h0.043l-0.082-0.039h0.242l0.277-0.282c0.32-0.375 0.629-0.519 0.922-0.441l0.078 0.043zm1.039 2 0.082-0.043-0.16-0.078-0.16 0.281c0.105 0.106 0.187 0.051 0.238-0.16zm-1.156 0.68c0.105 0.078 0.211 0.078 0.316 0 0.055-0.055 0.149-0.137 0.282-0.242l-0.04-0.122c0.161-0.183 0.133-0.293-0.082-0.316-0.211-0.055-0.371 0-0.476 0.16-0.137 0.238-0.137 0.41 0 0.52zm2.277 0.398c0 0.106 0.082 0.16 0.242 0.16 0.106-0.027 0.227-0.148 0.36-0.359 0.054-0.106 0.121-0.266 0.199-0.481l0.078-0.839c-0.133-0.106-0.25-0.082-0.359 0.078-0.106 0.215-0.184 0.363-0.239 0.441-0.187 0.586-0.281 0.922-0.281 1zm-2.519 1.719-0.078-0.039c0.023-0.055 0.011-0.106-0.043-0.16-0.079-0.028-0.133-0.012-0.161 0.039-0.023 0.054 0 0.094 0.082 0.121 0.079 0.055 0.145 0.066 0.2 0.039zm-0.879-0.277-0.242-0.243c-0.481-0.238-0.774-0.199-0.879 0.121-0.078 0.266 0.054 0.399 0.398 0.399 0.348-0.024 0.59-0.117 0.723-0.277zm0.64 0.757 0.118-0.078c0.027-0.082 0.015-0.133-0.039-0.16-0.028-0.055-0.079-0.066-0.161-0.039-0.078 0-0.16 0.078-0.238 0.238 0.133 0.106 0.238 0.121 0.32 0.039zm-3.402-0.839 0.121-0.239c-0.265-0.215-0.426-0.16-0.48 0.16l0.359 0.079zm0.52-0.36c0.054 0.133 0.187 0.215 0.402 0.238 0.184 0.028 0.305-0.011 0.359-0.117l0.039-0.199c-0.64-0.402-0.906-0.375-0.8 0.078zm0 0.641-0.039 0.078c0.347 0.215 0.574 0.281 0.679 0.203l-0.078-0.121c-0.16 0-0.348-0.055-0.562-0.16zm-2.52-2.602c0-0.078-0.012-0.183-0.039-0.32l-0.078-0.399c-0.215 0.106-0.254 0.333-0.121 0.68 0.105 0.188 0.172 0.281 0.199 0.281 0.055-0.027 0.066-0.109 0.039-0.242zm0.441 0.199 0.321-0.718-0.321-0.598c-0.214-0.109-0.335-0.148-0.359-0.121 0.027 0.078 0.039 0.133 0.039 0.16l0.16 0.438 0.078 0.562c0.055 0.16 0.082 0.254 0.082 0.277zm-0.64 0.524 0.039-0.082c-0.211-0.188-0.293-0.172-0.238 0.039 0.054 0.242 0.121 0.254 0.199 0.043zm0.64-0.281c-0.082 0.05-0.148 0.132-0.199 0.238-0.054 0.137-0.109 0.226-0.16 0.281-0.055 0.055-0.187 0.067-0.402 0.039-0.293-0.023-0.387 0.055-0.278 0.242 0.133 0.211 0.293 0.293 0.481 0.239l0.199-0.2c0.266-0.535 0.387-0.812 0.359-0.839zm1.161-0.039c-0.161 0-0.282 0.105-0.36 0.32-0.136 0.371-0.082 0.57 0.16 0.598 0.051 0.027 0.305 0 0.758-0.079l-0.078-0.64c-0.266-0.106-0.426-0.176-0.48-0.199zm-2.2-0.321-0.043-0.199c-0.023-0.16-0.093-0.242-0.199-0.242-0.105 0.027-0.187 0.105-0.238 0.242-0.055 0.184 0 0.305 0.16 0.359 0.184 0.079 0.293 0.024 0.32-0.16zm0.079-0.48 0.039-0.403-0.039-0.117c-0.133-0.105-0.188-0.054-0.161 0.16 0 0.211 0.055 0.332 0.161 0.36zm-0.961-0.321c0.082 0.028 0.136 0 0.16-0.082v-0.156c-0.024-0.137-0.133-0.226-0.321-0.281-0.132 0.133-0.144 0.266-0.039 0.398 0.055 0.055 0.121 0.094 0.2 0.121zm0.601-2.039c-0.133 0.399-0.121 0.664 0.039 0.801 0.055-0.109 0.149-0.414 0.281-0.922 0.133-0.398 0.266-0.695 0.399-0.879 0.055-0.027 0.109-0.066 0.16-0.121l-0.519 0.321c-0.215 0.507-0.333 0.773-0.36 0.8zm1.238-0.199c-0.238 0.238-0.25 0.371-0.039 0.399l0.121-0.2-0.082-0.199zm4.043 3.078c0.079-0.027 0.145-0.121 0.2-0.281 0.16-0.238 0.437-0.32 0.839-0.238l-0.402-0.403c-0.156-0.05-0.316-0.05-0.476 0-0.188 0.082-0.348 0.137-0.481 0.161-0.215-0.051-0.375-0.079-0.48-0.079-0.161-0.027-0.282 0.067-0.36 0.282-0.109 0.211-0.226 0.332-0.359 0.359 0.238 0.16 0.437 0.266 0.598 0.32 0.16 0 0.32-0.082 0.48-0.242 0.078-0.023 0.227 0.016 0.441 0.121zm1 0.559 0.039-0.16c-0.027-0.16-0.105-0.211-0.242-0.16-0.133 0.082-0.226 0.187-0.277 0.32 0.16 0.082 0.32 0.082 0.48 0zm-5.562-3.719c-0.133 0.293-0.16 0.52-0.078 0.68 0.105-0.106 0.254-0.387 0.437-0.84l-0.039-0.48c-0.16 0.265-0.265 0.48-0.32 0.64zm3.562 0.961c0 0.133 0.012 0.211 0.039 0.238l0.321-0.039 0.078 0.039 0.441-0.359 0.321-0.078c-0.907-0.508-1.496-0.801-1.762-0.883-0.133 0.16-0.106 0.32 0.082 0.481 0.211 0.16 0.344 0.281 0.398 0.359 0.055 0.055 0.082 0.137 0.082 0.242zm-1.519-2.199-0.082-0.242c-0.133-0.078-0.266-0.094-0.399-0.039-0.187 0.027-0.296 0.121-0.32 0.281 0.293-0.055 0.559-0.055 0.801 0z" inkscape:connector-curvature="0"/>
      <g id="g92">
        <g id="g94">
          <g id="g100">
            <path id="path108" style="fill-rule:evenodd;fill:url(#radialGradient102)" d="m12.164 25.774c-0.051 0-0.117 0.012-0.199 0.039l-0.078-0.281h0.039l-0.039-0.117v-0.082l-0.242-0.078c0.082 0.078 0.148 0.117 0.199 0.117-0.239 0.055-0.414 0.121-0.52 0.203l-0.039 0.039c-0.133 0.426-0.215 0.746-0.238 0.961-0.16 0.344-0.242 0.613-0.242 0.797 0 0.297 0.039 0.586 0.121 0.883 0.398 0.211 0.801 0.386 1.199 0.519 1.547 0.559 3.078 0.707 4.602 0.438 0.824-0.133 1.558-0.371 2.199-0.719 0.054-0.027 0.133-0.078 0.238-0.16-0.293 0.055-0.664-0.039-1.117-0.281-0.27-0.106-0.469-0.161-0.602-0.161-0.16-0.023-0.293-0.05-0.398-0.078h0.039c0.184 0.028 0.437-0.011 0.758-0.121 0.16 0 0.402 0.133 0.722 0.403 0.239 0.16 0.465 0.226 0.68 0.199 0.106-0.082 0.238-0.172 0.399-0.281h-0.04l-0.16 0.121c-0.187 0-0.441-0.094-0.761-0.282-0.348-0.211-0.614-0.304-0.797-0.277-0.297 0.106-0.535 0.145-0.723 0.117-0.105 0-0.226-0.023-0.359-0.078-0.078 0.027-0.16 0.051-0.239 0.078-0.027 0.028-0.054 0.043-0.082 0.043-0.078 0.051-0.16 0.117-0.238 0.199l-0.121-0.043 0.238-0.199c-0.398-0.023-0.691-0.066-0.879-0.117-0.664-0.137-1.011-0.215-1.039-0.242-0.558-0.215-0.961-0.387-1.199-0.52-0.16-0.078-0.426-0.332-0.801-0.761l-0.281-0.278zm4.68 1.641c0.054-0.027 0.136-0.055 0.242-0.082l0.078-0.039c-0.133 0.054-0.238 0.078-0.32 0.078-0.024 0-0.051-0.012-0.078-0.039l0.078 0.082zm0.562-0.242c0.106-0.028 0.239-0.039 0.399-0.039 0.133 0.027 0.265 0.078 0.398 0.16 0.188 0.133 0.32 0.226 0.402 0.281 0.188 0.133 0.36 0.199 0.52 0.199 0.133 0 0.32-0.027 0.559-0.082 0.109-0.051 0.254-0.066 0.441-0.039 0.238-0.238 0.453-0.508 0.641-0.801 0.027-0.078 0.066-0.16 0.121-0.238 0.293-0.961 0.449-2.039 0.476-3.242v-0.719c0-0.027-0.051-0.094-0.16-0.199 0.109-0.082 0.215-0.121 0.32-0.121-0.132-0.133-0.25-0.094-0.359 0.121l-0.039-0.082c-0.133 0.402-0.398 0.586-0.801 0.562l-0.16 0.039h-0.039c-0.078 0.028-0.16 0.055-0.238 0.079-0.137 0.054-0.242 0.136-0.321 0.242l-0.082 0.238-0.281 0.203 0.281-0.16 0.121-0.203c0.079-0.106 0.254-0.184 0.52-0.238h0.039c0.348-0.082 0.547-0.133 0.602-0.161l0.359-0.398-0.039 0.117c-0.082 0.133-0.359 0.36-0.84 0.68-0.215 0.137-0.387 0.309-0.519 0.519-0.188 0.27-0.497 0.469-0.922 0.602-0.188 0.055-0.399 0.039-0.641-0.039-0.32-0.106-0.531-0.16-0.641-0.16h-0.757c-0.403-0.266-0.696-0.387-0.879-0.36-0.297 0.239-0.508 0.387-0.641 0.438-0.215 0.109-0.48 0.16-0.801 0.16h-0.039c-0.082 0.027-0.16 0.043-0.242 0.043-0.184-0.055-0.348-0.094-0.48-0.121h-0.118l-0.441 0.238v0.121l-0.121-0.078c-0.024 0.024-0.039 0.051-0.039 0.078-0.055 0.188-0.121 0.305-0.199 0.36l-0.282 0.121-0.121-0.281 0.082-0.04c0.293-0.054 0.465-0.171 0.52-0.359l0.039-0.121h0.16l-0.117 0.121v0.039c0.078-0.105 0.156-0.187 0.238-0.238h-0.039c0.078-0.027 0.133-0.094 0.16-0.203-0.054 0.054-0.136 0.094-0.242 0.121l-0.039 0.039-0.039-0.039v-0.078l0.078-0.043-0.039-0.039h0.078l0.121-0.039h0.039l0.321-0.082-0.321 0.043 0.082-0.043-0.242 0.043h-0.078v-0.122l0.48-0.121 0.079 0.082h0.121l0.199-0.082c0.082 0 0.199 0.028 0.359 0.082 0.137 0.051 0.254 0.051 0.364 0 0.183-0.082 0.343-0.293 0.476-0.64 0.055-0.082 0.16-0.172 0.32-0.281l0.043-0.04c-0.082-0.214-0.187-0.398-0.32-0.558-0.055-0.082-0.254-0.297-0.601-0.641-0.161-0.265-0.215-0.426-0.161-0.48 0.082-0.133 0.227-0.133 0.442 0 0.187 0.105 0.32 0.226 0.398 0.359l0.481 0.399c0.082 0.082 0.121 0.214 0.121 0.402 0.187 0.426 0.347 0.734 0.48 0.918 0.211 0.348 0.492 0.469 0.84 0.363-0.187 0.078-0.375 0.09-0.562 0.039-0.184-0.105-0.348-0.176-0.481-0.199l0.481 0.238c0.16 0.055 0.402 0.028 0.722-0.078 0.106 0 0.36 0.078 0.758 0.238 0.293 0.106 0.52 0.067 0.68-0.121l0.043-0.039c0.183-0.347 0.304-0.547 0.359-0.601l0.16-0.078c0.16-0.082 0.414-0.149 0.758-0.2 0.242-0.054 0.426-0.199 0.563-0.441l0.039-0.121c0.105-0.106 0.187-0.266 0.238-0.481l0.043-0.878-0.082 0.839-0.121 0.36c0.054-0.239 0.054-0.625 0-1.16l-0.278-0.2c-0.109-0.132-0.402-0.64-0.882-1.519-0.348-0.641-0.719-1.094-1.118-1.36-0.453-0.398-0.828-0.652-1.121-0.761-0.16-0.051-0.441-0.051-0.84 0-0.027-0.344-0.093-0.547-0.199-0.598-0.136-0.055-0.32 0.067-0.562 0.359l-0.719 0.719c-0.055 0.082-0.254 0.496-0.602 1.242l-0.277 0.481-0.043 0.078-0.359 0.52c0-0.161 0.015-0.293 0.043-0.399-0.055 0.188-0.067 0.332-0.043 0.438l0.281-0.317c-0.078 0.184-0.215 0.383-0.398 0.598-0.215 0.265-0.364 0.469-0.442 0.601-0.32 0.559-0.586 1.161-0.801 1.801l-0.039 0.078-0.121 0.36v-0.039c-0.027-0.082-0.012-0.2 0.039-0.36l-0.117 0.321 0.078 0.078-0.121 0.242h0.043l0.078-0.242 0.16 0.16c0.215 0.133 0.36 0.254 0.442 0.359l0.121 0.403 0.039 0.039v0.121h-0.039l-0.082 0.199-0.039 0.039-0.16-0.039 0.078 0.078 0.082-0.039h0.039c-0.055 0.188-0.121 0.293-0.199 0.32l-0.442 0.16-0.359 0.04-0.078-0.04-0.121-0.039-0.039-0.242 0.078-0.359 0.039-0.121 0.082-0.117v-0.043l-0.082-0.118 0.043-0.043h-0.16l-0.122-0.039-0.039-0.078v0.078h0.039l0.04 0.082 0.039 0.039-0.079 0.04h-0.082l-0.238 0.039-0.121-0.039 0.16 0.242 0.039 0.039 0.121 0.199v-0.039l-0.121-0.199v-0.043l-0.078-0.16c0.051 0 0.16 0.015 0.32 0.043l0.079-0.082 0.043 0.082v0.039l-0.204 0.078 0.161 0.043h0.043v-0.082l0.039-0.039v-0.039l0.078-0.043v0.121l-0.039 0.039v0.121l-0.239 0.441-0.043-0.039v-0.043l0.161-0.437-0.079 0.199-0.121 0.121-0.121 0.359-0.398-0.64-0.52-0.321-0.281-0.082c-0.078 0-0.16 0.067-0.238 0.204-0.133 0.132-0.227 0.211-0.281 0.238-0.161 0.055-0.348 0.039-0.559-0.039-0.481-0.321-0.828-0.442-1.039-0.36-0.082 0.024-0.203 0.106-0.363 0.239-0.106 0.133-0.239 0.187-0.399 0.16l-0.359-0.121c-0.055-0.051-0.094-0.067-0.121-0.039-0.055 0.082-0.094 0.121-0.121 0.121h-0.239l-0.082-0.281-0.16-0.04c0.934 1.602 2.27 2.907 4 3.918 0.027 0.028 0.055 0.043 0.082 0.043 0.106-0.109 0.16-0.175 0.16-0.199l0.078-0.48c0.137-0.535 0.297-0.977 0.481-1.321l0.281-0.679 0.078-0.282 0.121-0.281 0.082 0.121v-0.039l0.118 0.078v0.082l0.16 0.079 0.043 0.039v0.281l0.078 0.039 0.039 0.16c0.082-0.023 0.215-0.078 0.402-0.16l0.039-0.039c0.028 0.133 0.078 0.226 0.16 0.281l0.239 0.121 0.402 0.559 0.199 0.078c0.078 0.055 0.227 0.082 0.442 0.082l0.277 0.039c0.188 0.055 0.336 0.121 0.441 0.199 0.266 0.16 0.481 0.281 0.641 0.36 0.078 0 0.16-0.012 0.238-0.039 0.082 0 0.188-0.067 0.321-0.2 0.16-0.132 0.265-0.187 0.32-0.16-0.078 0.293 0.105 0.442 0.559 0.442h0.839c-0.05 0.023-0.093 0.05-0.117 0.078zm-1.082 1.519c-0.265-0.023-0.293-0.117-0.078-0.277 0.613-0.215 0.891-0.215 0.84 0l-0.121 0.238c-0.215 0.055-0.426 0.067-0.641 0.039zm0.082-1.519c-0.109-0.028-0.187-0.039-0.242-0.039-0.023 0.023-0.066 0.039-0.117 0.039h0.359zm-0.359-0.918c-0.137-0.11-0.137-0.282 0-0.52 0.105-0.16 0.265-0.215 0.476-0.16 0.215 0.023 0.243 0.133 0.082 0.316l0.04 0.122c-0.133 0.105-0.227 0.187-0.282 0.242-0.105 0.078-0.211 0.078-0.316 0zm1.156-0.68c-0.051 0.211-0.133 0.266-0.238 0.16l0.16-0.281 0.16 0.078-0.082 0.043zm-1.039-2-0.078-0.043c-0.293-0.078-0.602 0.066-0.922 0.441l-0.277 0.282c0.16-0.055 0.332-0.176 0.519-0.364 0.239-0.21 0.438-0.332 0.598-0.359l0.16 0.043zm2.16 3.078c0-0.078 0.094-0.414 0.281-1 0.055-0.078 0.133-0.226 0.239-0.441 0.109-0.16 0.226-0.184 0.359-0.078l-0.078 0.839c-0.078 0.215-0.145 0.375-0.199 0.481-0.133 0.215-0.254 0.332-0.36 0.359-0.16 0-0.242-0.054-0.242-0.16zm0.84 0.121c0.188-0.187 0.414-0.574 0.68-1.16 0.109-0.215 0.226-0.562 0.359-1.039 0.27 0.293 0.363 0.703 0.281 1.238-0.16 0.559-0.238 0.973-0.238 1.239l-0.441 0.242c-0.188 0.215-0.414 0.281-0.68 0.199-0.238-0.051-0.332-0.145-0.281-0.281 0.027-0.078 0.136-0.227 0.32-0.438zm-4.437-2.48c0.023-0.028 0.05-0.039 0.078-0.039h-0.16l0.082 0.039zm-0.364-1.559c-0.211-0.137-0.343-0.269-0.398-0.402-0.215-0.375-0.078-0.375 0.398 0l0.442 0.558c-0.078 0.028-0.227-0.023-0.442-0.156zm-8.199 1.199-0.238-0.64v-0.039l0.359 0.32c0.348 0.238 0.653 0.359 0.918 0.359l0.203-0.082 0.438-0.199c0.242-0.105 0.519-0.066 0.84 0.121l0.441 0.199c0.133 0.055 0.293 0.028 0.48-0.082l0.399-0.359h0.082l0.238-0.039c0.133 0 0.293 0.039 0.481 0.121l0.039 0.039 0.121-0.601 0.039-0.079c-0.133-0.132-0.254-0.332-0.359-0.601l-0.122-0.68v-0.398c-0.078-0.133-0.304-0.321-0.679-0.559-0.211-0.215-0.332-0.414-0.36-0.601-0.027-0.321-0.054-0.493-0.078-0.52-0.32-0.586-0.441-1.066-0.359-1.441l0.039-0.121v-0.039l0.039 0.16 0.121-0.282v0.043l0.078 0.399c0.133 0.265 0.215 0.469 0.242 0.601 0.024 0.079 0.094 0.239 0.2 0.481l0.039 0.078c0.054 0.055 0.082 0.242 0.082 0.559 0 0.214 0.066 0.363 0.199 0.441 0.184 0.105 0.332 0.215 0.437 0.32l0.321 0.321c0.054 0.375 0.109 0.64 0.16 0.8 0.055 0.133 0.16 0.293 0.32 0.481 0.242 0.266 0.375 0.41 0.403 0.437l-0.082-0.039-0.161-0.039 0.039 0.039 0.243 0.121 0.16 0.039 0.359-0.761c0.348-0.746 0.613-1.211 0.801-1.399l0.078-0.199c0.242-0.746 0.563-1.469 0.961-2.16l0.359-0.52c0.106-0.187 0.2-0.308 0.282-0.359-0.454 0.797-0.735 1.41-0.84 1.84 0.105-0.375 0.32-0.828 0.64-1.363l0.239-0.52-0.039 0.043 0.078-0.281c0.082-0.321 0.027-0.574-0.16-0.762-0.133-0.105-0.387-0.238-0.758-0.398l-0.961-0.36c-0.852-0.242-1.387-0.347-1.602-0.32-0.16 0.027-0.332 0.121-0.519 0.281-0.266 0.211-0.438 0.332-0.52 0.36l-0.558 0.199v-0.321c0.027-0.027 0.039-0.054 0.039-0.082v-0.078l-0.321 0.719-0.039 0.121 0.16-0.32 0.161-0.039-0.039 0.121 0.839 0.359c-0.214 0-0.586 0.078-1.121 0.239v-0.278l-0.082 0.317-0.078 0.043-0.16 0.48-0.039-0.402v-0.039l0.117-0.36c0.027-0.054 0.016-0.105-0.039-0.16l0.039-0.32-0.078 0.199c-0.055 0.266-0.066 0.48-0.039 0.641l-0.68 0.078h-0.519c-0.11 0.027-0.227 0.121-0.364 0.281-0.16 0.188-0.425 0.773-0.796 1.762 0.105 0.023 0.293 0.023 0.558 0 0.293-0.028 0.508-0.016 0.641 0.039-1.067 0.691-1.586 1.597-1.563 2.719-0.078 0.562-0.105 0.96-0.078 1.199v0.203c-0.187-0.297-0.293-0.574-0.32-0.84-0.106-0.297-0.172-0.574-0.199-0.84v-0.082c-0.055-0.027-0.094-0.078-0.121-0.16v0.039c0 0.563 0.093 1.149 0.281 1.762l-0.039 0.121c0.078 0.183 0.172 0.359 0.277 0.519zm10.52-0.961c-0.024-0.238-0.106-0.613-0.239-1.121 0-0.16 0.012-0.238 0.039-0.238 0.028-0.027 0.121-0.016 0.282 0.039 0.265 0.106 0.48 0.32 0.64 0.641 0.16 0.375 0.278 0.664 0.36 0.879l-0.243 0.039c-0.211 0.16-0.41 0.242-0.597 0.242-0.106 0-0.176-0.039-0.199-0.121-0.028-0.078-0.043-0.199-0.043-0.36zm1.601 0.399c-0.133-0.184-0.226-0.371-0.281-0.559v-0.879c0-0.054-0.106-0.336-0.32-0.839-0.133-0.348-0.2-0.641-0.2-0.883 0.508 0.187 0.907 0.629 1.2 1.32 0.269 0.641 0.363 1.254 0.281 1.84l-0.32-0.039c-0.079 0.265-0.2 0.281-0.36 0.039zm3.281 1.961-0.281 0.68c0.559-1.122 0.762-2.305 0.602-3.559-0.082-0.746-0.297-1.52-0.641-2.32-0.242-0.536-0.508-1.039-0.801-1.52-0.105-0.187-0.226-0.375-0.359-0.562 0.051 0.082 0.105 0.175 0.16 0.281l0.199 0.281c0.399 0.692 0.707 1.305 0.918 1.84 0.27 0.746 0.442 1.414 0.524 2l-0.121-0.281v0.281l0.121 0.199c0.078 0.988-0.028 1.879-0.321 2.68zm-16.281-7.758 0.481-1c0.48-0.773 1.05-1.387 1.718-1.84l0.442-0.242c1.172-0.668 2.574-0.961 4.199-0.879-0.668-0.055-1.332-0.027-2 0.078-0.852 0.16-1.602 0.414-2.238 0.762-1.016 0.559-1.789 1.387-2.321 2.48-0.109 0.211-0.203 0.426-0.281 0.641zm-0.281 1.078c-0.024 0.16-0.051 0.332-0.078 0.52-0.055 0.562-0.016 1.133 0.121 1.718-0.137-0.773-0.149-1.519-0.043-2.238zm2.922-3.558-0.121 0.078c-0.508 0.293-0.946 0.707-1.321 1.242 0.375-0.508 0.813-0.906 1.321-1.203l0.121-0.117zm3.801 8.32-0.043-0.043v0.082l0.043-0.039zm-6.161-2.121-0.32-1.801c0 0.398 0.039 0.813 0.117 1.242l0.203 0.559zm2.438-6.242h0.082l0.078-0.039v-0.04l-0.039 0.04-0.121 0.039zm0.441 0.082c-0.054-0.028-0.105-0.055-0.16-0.082h-0.039c0.051 0.054 0.117 0.082 0.199 0.082zm-0.242-0.36 0.043 0.039c0.426-0.215 0.879-0.398 1.359-0.558-0.402 0.105-0.867 0.277-1.402 0.519zm2.363-0.679-0.722 0.117 0.679-0.078 0.043-0.039zm8.957 7.519c-0.132-0.723-0.32-1.242-0.558-1.562 0.215 0.082 0.519 0.347 0.922 0.8l0.039 1.121c-0.133 0.375-0.266 0.254-0.403-0.359zm-3.117-0.281c-0.187-0.027-0.336-0.094-0.441-0.199-0.16-0.161-0.172-0.309-0.039-0.442 0.32 0.055 0.519 0.199 0.597 0.442l-0.117 0.199zm0.321-1.879-0.122 0.039c-0.265-0.16-0.546-0.266-0.839-0.32-0.321-0.078-0.454-0.172-0.403-0.282 0.082-0.21 0.309-0.199 0.684 0.043 0.293 0.184 0.519 0.36 0.68 0.52zm-0.563-1.32c-0.16-0.028-0.277-0.016-0.359 0.039l-0.039-0.239c0.05-0.132 0.172-0.148 0.359-0.043 0.105 0.055 0.199 0.122 0.281 0.204 0.106 0.027 0.278 0.105 0.52 0.238 0.293 0.215 0.707 0.558 1.238 1.039l-0.32 0.121c-0.16-0.238-0.547-0.52-1.16-0.84-0.079-0.055-0.239-0.144-0.481-0.281-0.051-0.106-0.066-0.184-0.039-0.238zm1.039-0.121 0.043-0.04c0.32 0.028 0.692 0.254 1.117 0.68l-1.16-0.64zm1.883 1.48-0.039 0.281c-0.215-0.082-0.309-0.199-0.281-0.359 0.027-0.16 0.132-0.137 0.32 0.078zm-6.402 8.801c0.214 0.105 0.402 0.16 0.562 0.16l0.078 0.121c-0.105 0.078-0.332 0.012-0.679-0.203l0.039-0.078zm0-0.641c-0.106-0.453 0.16-0.48 0.8-0.078l-0.039 0.199c-0.054 0.106-0.172 0.145-0.359 0.117-0.215-0.023-0.348-0.105-0.402-0.238zm-0.52 0.36-0.359-0.079c0.054-0.32 0.215-0.375 0.48-0.16l-0.121 0.239zm3.402 0.839c-0.082 0.082-0.187 0.067-0.32-0.039 0.078-0.16 0.16-0.238 0.238-0.238 0.082-0.027 0.133-0.016 0.161 0.039 0.054 0.027 0.066 0.078 0.039 0.16l-0.118 0.078zm-0.64-0.757c-0.133 0.16-0.375 0.253-0.723 0.277-0.344 0-0.476-0.133-0.398-0.399 0.105-0.32 0.398-0.359 0.879-0.121l0.242 0.243zm0.879 0.277c-0.055 0.027-0.121 0.016-0.2-0.039-0.082-0.027-0.105-0.067-0.082-0.121 0.028-0.051 0.082-0.067 0.161-0.039 0.054 0.054 0.066 0.105 0.043 0.16l0.078 0.039zm-4.039-2.277c0.05 0.027 0.214 0.093 0.48 0.199l0.078 0.64c-0.453 0.079-0.707 0.106-0.758 0.079-0.242-0.028-0.296-0.227-0.16-0.598 0.078-0.215 0.199-0.32 0.36-0.32zm-1.161 0.039c0.028 0.027-0.093 0.304-0.359 0.839l-0.199 0.2c-0.188 0.054-0.348-0.028-0.481-0.239-0.109-0.187-0.015-0.265 0.278-0.242 0.215 0.028 0.347 0.016 0.402-0.039 0.051-0.055 0.106-0.144 0.16-0.281 0.051-0.106 0.117-0.184 0.199-0.238zm-0.64 0.281c-0.078 0.211-0.149 0.199-0.199-0.043-0.055-0.211 0.027-0.227 0.238-0.039l-0.039 0.082zm0.64-0.524c0-0.023-0.027-0.117-0.082-0.277l-0.078-0.562-0.16-0.438c0-0.027-0.015-0.082-0.039-0.16 0.027-0.027 0.145 0.012 0.359 0.121l0.321 0.598-0.321 0.718zm-0.441-0.199c0.027 0.133 0.016 0.215-0.039 0.242-0.027 0-0.094-0.093-0.199-0.281-0.133-0.347-0.094-0.574 0.121-0.68l0.078 0.399c0.027 0.137 0.039 0.242 0.039 0.32zm1.723-0.679c0.133 0.027 0.25 0.027 0.359 0h0.117l0.082 0.281-0.48 0.078-0.039-0.199-0.039-0.121v-0.039zm0.398-0.961-0.238-0.239-0.043 0.121 0.242 0.118h0.039zm-4.32 1.363c-0.078-0.137-0.078-0.254 0-0.363l0.039-0.079c-0.024 0.079-0.012 0.172 0.043 0.282 0.105 0.16 0.172 0.277 0.199 0.359-0.109-0.027-0.199-0.094-0.281-0.199zm0.719-0.442c-0.079-0.027-0.145-0.066-0.2-0.121-0.105-0.132-0.093-0.265 0.039-0.398 0.188 0.055 0.297 0.144 0.321 0.281v0.156c-0.024 0.082-0.078 0.11-0.16 0.082zm0.961 0.321c-0.106-0.028-0.161-0.149-0.161-0.36-0.027-0.214 0.028-0.265 0.161-0.16l0.039 0.117-0.039 0.403zm-0.079 0.48c-0.027 0.184-0.136 0.239-0.32 0.16-0.16-0.054-0.215-0.175-0.16-0.359 0.051-0.137 0.133-0.215 0.238-0.242 0.106 0 0.176 0.082 0.199 0.242l0.043 0.199zm-1.082-2.922c-0.054 0.321-0.121 0.547-0.199 0.68-0.187-0.293-0.172-0.625 0.039-1l0.16 0.32zm0.801 0.082c0.027-0.027 0.145-0.293 0.36-0.8l0.519-0.321c-0.051 0.055-0.105 0.094-0.16 0.121-0.133 0.184-0.266 0.481-0.399 0.879-0.132 0.508-0.226 0.813-0.281 0.922-0.16-0.137-0.172-0.402-0.039-0.801zm1.238-0.199 0.082 0.199-0.121 0.2c-0.214-0.028-0.199-0.161 0.039-0.399zm-0.519-0.082c0.055-0.16 0.16-0.375 0.32-0.64l0.039 0.48c-0.183 0.453-0.332 0.734-0.437 0.84-0.082-0.16-0.055-0.387 0.078-0.68zm5.562 3.719c-0.16 0.082-0.32 0.082-0.48 0 0.051-0.133 0.144-0.238 0.277-0.32 0.137-0.051 0.215 0 0.242 0.16l-0.039 0.16zm-1-0.559c-0.214-0.105-0.363-0.144-0.441-0.121-0.16 0.16-0.32 0.242-0.48 0.242-0.161-0.054-0.36-0.16-0.598-0.32 0.133-0.027 0.25-0.148 0.359-0.359 0.078-0.215 0.199-0.309 0.36-0.282 0.105 0 0.265 0.028 0.48 0.079 0.133-0.024 0.293-0.079 0.481-0.161 0.16-0.05 0.32-0.05 0.476 0l0.402 0.403c-0.402-0.082-0.679 0-0.839 0.238-0.055 0.16-0.121 0.254-0.2 0.281zm-1-2.199c0-0.105-0.027-0.187-0.082-0.242-0.054-0.078-0.187-0.199-0.398-0.359-0.188-0.161-0.215-0.321-0.082-0.481 0.266 0.082 0.855 0.375 1.762 0.883l-0.321 0.078-0.441 0.359-0.078-0.039-0.321 0.039c-0.027-0.027-0.039-0.105-0.039-0.238zm-1.519 0.641 0.117 0.078h0.082v-0.039h-0.043l-0.156-0.039zm-0.043-0.282-0.039 0.04 0.082-0.04h-0.043zm-4.277 1v0.239c-0.188-0.051-0.227-0.16-0.122-0.321l0.122 0.082zm0.359-9.082-0.641 0.122c-0.027 0-0.039 0.015-0.039 0.039l0.321-0.079 0.359-0.082zm3.961 5.524c-0.242-0.055-0.508-0.055-0.801 0 0.027-0.16 0.133-0.254 0.32-0.281 0.133-0.055 0.266-0.039 0.399 0.039l0.082 0.242zm0.277-0.602c-0.16-0.105-0.453-0.105-0.879 0-0.398 0.133-0.668 0.133-0.8 0 0.105-0.293 0.359-0.465 0.761-0.519 0.344-0.028 0.68 0.027 1 0.16l-0.082 0.359zm0.563-2.761c-0.668-0.371-1.348-0.586-2.043-0.637 0.136-0.481 0.535-0.59 1.203-0.32 0.344 0.132 0.773 0.371 1.277 0.718l-0.437 0.239zm0.199 1.48-0.481 0.481c-0.054-0.106-0.32-0.161-0.8-0.161-0.692 0.133-1.078 0.161-1.16 0.082-0.051-0.082 0.015-0.214 0.199-0.402 0.269-0.238 0.64-0.348 1.121-0.32 0.426 0 0.801 0.109 1.121 0.32zm-3.281 1.68c-0.293 0.16-0.481 0.363-0.559 0.601l-0.082-0.078c0.082-0.535 0.254-0.816 0.52-0.844l0.121 0.321zm-1.2-1.278c0.055-0.082 0.122-0.132 0.2-0.16l-0.039 0.321c-0.082-0.028-0.149 0.011-0.2 0.117-0.027-0.078-0.015-0.172 0.039-0.278zm0-1.48c-0.214 0.133-0.347 0.199-0.402 0.199 0.055-0.32 0.188-0.492 0.402-0.519v0.32zm2.84 0.437c-0.507 0.11-0.8 0.122-0.879 0.043 0.079-0.132 0.293-0.199 0.637-0.199l0.242 0.156zm-3.879 2.563c0.133-0.402 0.293-0.668 0.481-0.801-0.082 0.106-0.176 0.32-0.281 0.641 0.027 0.558-0.016 0.918-0.121 1.078-0.188-0.184-0.215-0.492-0.079-0.918z" inkscape:connector-curvature="0"/>
          </g>
        </g>
      </g>
      <path id="path110" style="fill-rule:evenodd;fill:#7e755b" d="m19.445 28.134c-0.187-0.055-0.347-0.121-0.48-0.2l-0.078-0.043c-0.055-0.023-0.094-0.05-0.121-0.078h0.199l-0.84-0.32c-0.348-0.187-0.625-0.254-0.84-0.199-0.082 0.027-0.148 0.039-0.199 0.039-0.106 0.027-0.188 0.055-0.242 0.082-0.184 0.051-0.305 0.066-0.36 0.039 0.106 0.078 0.215 0.133 0.321 0.16 0.133 0.051 0.254 0.078 0.359 0.078 0.188 0.028 0.426-0.011 0.723-0.117 0.183-0.027 0.449 0.066 0.797 0.277 0.32 0.188 0.574 0.282 0.761 0.282zm-6.441-3.399c0-0.027 0.016-0.054 0.043-0.082v-0.039l0.117-0.121h-0.16l-0.039 0.121c-0.055 0.188-0.227 0.305-0.52 0.359l-0.082 0.04 0.121 0.281 0.282-0.121c0.078-0.051 0.144-0.172 0.199-0.36 0-0.027 0.015-0.054 0.039-0.078zm1.16 1.758-0.277-0.039c-0.215 0-0.364-0.027-0.442-0.082l-0.199-0.078-0.402-0.559-0.239-0.121c-0.082-0.055-0.132-0.148-0.16-0.281l-0.039 0.039c-0.187 0.082-0.32 0.137-0.402 0.16l-0.039-0.16-0.078-0.039v-0.281l-0.043-0.039-0.16-0.079-0.118-0.082v-0.039l-0.082-0.121-0.121 0.281-0.078 0.282-0.238 0.797c0.051-0.079 0.133-0.227 0.238-0.438l0.039-0.039c0.106-0.082 0.281-0.148 0.52-0.203-0.051 0-0.117-0.039-0.199-0.117l0.242 0.078v0.082l0.039 0.117h-0.039l0.078 0.281c0.082-0.027 0.148-0.039 0.199-0.039l0.52 0.278c0.109 0.16 0.203 0.269 0.281 0.32 0.187 0.16 0.492 0.254 0.922 0.281 0.398 0.028 0.691 0.082 0.879 0.16-0.348-0.187-0.547-0.293-0.602-0.32zm-0.48-2.039c0.136 0.027 0.296 0.066 0.48 0.121 0.082 0 0.16-0.016 0.242-0.043 0.106-0.051 0.227-0.117 0.36-0.199l-0.082-0.039c-0.161 0-0.305-0.028-0.438-0.082-0.242-0.106-0.426-0.16-0.562-0.16l-0.321 0.082h0.082c0 0.027-0.015 0.05-0.039 0.078-0.027 0.109-0.082 0.176-0.16 0.203h0.16l0.278 0.039zm6.203-1.402c0.078-0.024 0.16-0.051 0.238-0.079l0.039-0.039c-0.348 0.051-0.598 0.118-0.758 0.2l-0.16 0.078c-0.055 0.054-0.176 0.254-0.359 0.601-0.137 0.239-0.254 0.36-0.364 0.36 0.348 0.105 0.602 0.066 0.762-0.121l0.199-0.477-0.281 0.16c-0.023-0.054-0.023-0.109 0-0.16v-0.082c0.027-0.133 0.121-0.238 0.281-0.32 0.106-0.028 0.227-0.067 0.36-0.121h0.043zm1.636-0.719c0.082 0 0.161 0.039 0.243 0.121-0.266 1.359-0.336 2.32-0.2 2.879 0.293-0.801 0.399-1.692 0.321-2.68l-0.121-0.199v-0.281c-0.161-0.239-0.293-0.371-0.403-0.399l-0.078 0.078-0.16 0.52 0.039 0.082c0.106-0.215 0.227-0.254 0.359-0.121zm-0.16-1.879c-0.211-0.535-0.519-1.148-0.918-1.84l-0.199-0.281c-0.32-0.188-0.801-0.531-1.441-1.039-0.614-0.508-1.106-0.852-1.481-1.039-0.398-0.215-0.719-0.254-0.961-0.121-0.293 0.265-0.57 0.464-0.84 0.601 0.055-0.297 0.227-0.707 0.524-1.242-0.617-0.453-1.227-0.746-1.844-0.879-1.012-0.293-1.785-0.469-2.316-0.519-0.297-0.055-0.735-0.055-1.321 0l-0.043 0.039h0.043l-0.242 0.16-0.16 0.199-0.117 0.121c-0.188 0.371-0.281 0.598-0.281 0.68v0.039l0.078 0.32-0.039 0.16v0.078c0.187-0.316 0.398-0.558 0.64-0.718 0.16-0.106 0.387-0.172 0.68-0.2 0.105-0.027 0.187-0.093 0.238-0.199 0.137-0.082 0.387-0.121 0.762-0.121l0.359 0.16c0.161 0.055 0.653 0.094 1.481 0.121 0.668 0.024 1.133 0.161 1.398 0.399 0.242 0.242 0.254 0.625 0.043 1.16-0.136 0.293-0.414 0.813-0.84 1.559l-0.32 1.363 0.277-0.481c0.348-0.75 0.547-1.16 0.602-1.242l0.719-0.719c0.242-0.292 0.429-0.414 0.562-0.359l0.36-0.039c0.371 0.051 0.824 0.266 1.359 0.637 0.586 0.402 1 0.695 1.238 0.883 0.242 0.16 0.442 0.414 0.602 0.757 0.215 0.508 0.347 0.817 0.398 0.922l0.242 0.321c0.079 0.16 0.122 0.32 0.122 0.48l0.117 0.477c0.054 0.535 0.054 0.921 0 1.16l0.121-0.36 0.082-0.839c0.023-0.055 0.078-0.122 0.156-0.2l0.16-0.238v-0.121zm-9.476 4.559v0.039l0.039 0.121 0.039 0.199 0.48-0.078-0.082-0.281h-0.117c-0.109 0.027-0.226 0.027-0.359 0zm-2.762-1.04-0.359-0.039c0.371 0.211 0.652 0.278 0.839 0.2 0.028 0 0.145-0.094 0.36-0.282 0.187-0.105 0.305-0.132 0.359-0.078l-0.039 0.078 0.16 0.121 0.52 0.321 0.398 0.64 0.121-0.359v-0.082l-0.121-0.199-0.039-0.039-0.16-0.242v-0.04l-0.078-0.238c-0.027-0.16-0.027-0.297 0-0.402l0.199-0.442 0.078-0.117 0.16 0.039-0.039-0.039 0.161 0.039 0.082 0.039c-0.028-0.027-0.161-0.171-0.403-0.437-0.16-0.188-0.265-0.348-0.32-0.481-0.051-0.16-0.106-0.425-0.16-0.8l-0.321-0.321-0.32-0.16c0.215 0.16 0.363 0.305 0.442 0.442 0.082 0.132 0.121 0.359 0.121 0.679 0.05 0.532 0.16 0.867 0.32 1l-0.082 0.199-0.039 0.079-0.121 0.601-0.039-0.039c-0.188-0.082-0.348-0.121-0.481-0.121l-0.238 0.039h-0.082l-0.399 0.359c-0.187 0.11-0.347 0.137-0.48 0.082zm3.961-3.16c-0.188 0.188-0.453 0.653-0.801 1.399l-0.359 0.761h0.039c0.105 0 0.238-0.16 0.398-0.48v0.281c-0.051 0.16-0.066 0.278-0.039 0.36v0.039l0.121-0.36 0.039-0.078 0.243-0.883c0.078-0.238 0.226-0.613 0.437-1.117l-0.078 0.078zm-3.32-1.398c-0.106-0.242-0.176-0.402-0.2-0.481-0.027-0.132-0.109-0.336-0.242-0.601l-0.078-0.399v-0.043l-0.121 0.282-0.039-0.16v0.039l-0.039 0.121 0.277 0.761c0.16 0.399 0.321 0.598 0.481 0.598l-0.039-0.117zm-4.2 1.879 0.079 0.199 0.16-0.918c0.027-0.137 0.054-0.269 0.082-0.402 0.051-0.293 0.093-0.547 0.117-0.758l0.16-1.121c0.106-0.266 0.281-0.574 0.52-0.922 0.16-0.238 0.386-0.613 0.679-1.117 0.082-0.137 0.203-0.227 0.364-0.282l-0.321 0.079c0-0.024 0.012-0.039 0.039-0.039l0.641-0.122 0.078-0.039h0.242c0.344 0.161 0.532 0.266 0.559 0.321-0.055 0.082-0.055 0.148 0 0.199 0.082 0.027 0.133 0.066 0.16 0.121l0.078-0.199v-0.039c0.027-0.188-0.039-0.387-0.199-0.602l-0.481-0.48-0.078-0.039c-0.082 0-0.148-0.028-0.199-0.082-0.055 0.027-0.094 0.043-0.121 0.043h-0.039c0.027-0.004 0.051-0.028 0.078-0.082l-0.078 0.039h-0.082c-0.024 0.027-0.051 0.043-0.078 0.043-0.055 0.05-0.094 0.093-0.121 0.117-0.508 0.297-0.946 0.695-1.321 1.203-0.453 0.586-0.691 1.172-0.718 1.758-0.028-0.239-0.028-0.492 0-0.758-0.028 0.105-0.133 0.344-0.321 0.719-0.082 0.214-0.148 0.586-0.199 1.121v0.238l0.32 1.801zm3.879-4.559v0.156l0.282-0.476 0.039-0.121-0.161 0.039-0.16 0.32v0.082zm-0.16 0.36v-0.043l-0.082-0.278-0.117 0.36v0.039l0.039 0.402 0.16-0.48z" inkscape:connector-curvature="0"/>
      <path id="path112" style="fill-rule:evenodd;fill:#5b5237" d="m19.445 28.134 0.16-0.121 0.321-0.239-0.602 0.117 0.36-0.078h-0.918c0.027 0.028 0.066 0.055 0.121 0.078l0.078 0.043c0.133 0.079 0.293 0.145 0.48 0.2zm0.719-5h-0.039c-0.266 0.05-0.441 0.132-0.52 0.238l-0.121 0.203 0.68-0.441zm-0.961 0.601 0.281-0.203 0.082-0.238c0.079-0.106 0.184-0.188 0.321-0.242h-0.043c-0.133 0.054-0.25 0.093-0.36 0.121-0.16 0.082-0.254 0.187-0.281 0.32v0.082c-0.023 0.051-0.023 0.106 0 0.16zm0.922-0.762h0.039l0.16-0.039c0.403 0.024 0.668-0.16 0.801-0.562l0.16-0.52 0.078-0.078c0.11 0.028 0.242 0.16 0.403 0.399l0.121 0.281c-0.082-0.586-0.254-1.254-0.524-2v0.121l-0.16 0.238c-0.078 0.078-0.133 0.145-0.156 0.2l-0.043 0.878c-0.051 0.215-0.133 0.375-0.238 0.481l-0.039 0.121c-0.137 0.242-0.321 0.387-0.563 0.441l-0.039 0.039zm-9.559-8.878c0.586-0.055 1.024-0.055 1.321 0 0.531 0.05 1.304 0.226 2.316 0.519 0.617 0.133 1.227 0.426 1.844 0.879-0.297 0.535-0.469 0.949-0.524 1.242 0.27-0.137 0.547-0.336 0.84-0.601 0.242-0.133 0.563-0.094 0.961 0.121 0.375 0.183 0.867 0.531 1.481 1.039 0.64 0.508 1.121 0.851 1.441 1.039-0.055-0.106-0.109-0.199-0.16-0.281l-0.883-1.039-1.238-1.122c-0.426-0.293-0.879-0.57-1.36-0.839-0.718-0.426-1.425-0.758-2.121-1l-1.16-0.278c-0.398-0.082-0.801-0.133-1.199-0.16-1.625-0.082-3.027 0.211-4.199 0.879l-0.442 0.242c-0.664 0.449-1.238 1.067-1.718 1.84l-0.481 1-0.121 0.359c-0.051 0.161-0.094 0.321-0.117 0.481l-0.043 0.238c-0.106 0.719-0.094 1.465 0.043 2.238l0.519 1.844 0.079 0.117c0.082 0.188 0.16 0.375 0.242 0.563l0.039-0.121c-0.188-0.613-0.281-1.199-0.281-1.762v-0.039l-0.079-0.199-0.203-0.559c-0.078-0.429-0.117-0.844-0.117-1.242v-0.238c0.051-0.535 0.117-0.907 0.199-1.121 0.188-0.375 0.293-0.614 0.321-0.719-0.028 0.266-0.028 0.519 0 0.758 0.027-0.586 0.265-1.172 0.718-1.758 0.375-0.535 0.813-0.949 1.321-1.242l0.121-0.078c0.027 0 0.054-0.016 0.078-0.043l0.121-0.039 0.039-0.04v0.04c-0.027 0.05-0.051 0.078-0.078 0.082h0.039c0.027 0 0.066-0.016 0.121-0.043h0.039c0.051 0.027 0.106 0.054 0.16 0.082l0.078 0.039 0.481 0.48c0.16 0.215 0.226 0.414 0.199 0.602v0.039l-0.039 0.32c0.055 0.051 0.066 0.106 0.039 0.16l0.082 0.278v0.043l0.078-0.043 0.082-0.317v-0.082l0.039-0.121 0.321-0.719 0.039-0.16-0.078-0.32v-0.039c0-0.082 0.093-0.309 0.281-0.68l0.117-0.121 0.16-0.199 0.242-0.16h-0.043l-0.679 0.078 0.722-0.117zm-4.402 9.839 0.039 0.079v-0.04l0.16 0.04c0.321 0.082 0.602 0.093 0.84 0.039l0.524-0.239-0.321 0.039-0.203 0.082c-0.265 0-0.57-0.121-0.918-0.359l-0.359-0.32v0.039l0.238 0.64zm2.039-9.16c0.535-0.242 1-0.414 1.402-0.519-0.48 0.16-0.933 0.343-1.359 0.558l-0.043-0.039zm3.32 8.039-0.16-0.039-0.078 0.117-0.199 0.442c-0.027 0.105-0.027 0.242 0 0.402l0.078 0.238v0.04l0.121 0.039 0.238-0.039h0.082l0.079-0.04-0.039-0.039-0.04-0.082h-0.039v-0.078l0.039 0.078 0.122 0.039h0.16l0.117 0.043 0.043-0.121 0.238 0.239 0.16-0.161c0.078-0.156 0.094-0.343 0.039-0.558l-0.16-0.16-0.078 0.242h-0.043l0.121-0.242-0.078-0.078 0.117-0.321v-0.281c-0.16 0.32-0.293 0.48-0.398 0.48h-0.039l-0.16-0.039-0.243-0.121zm0.204 0.602-0.043 0.039v-0.082l0.043 0.043zm-5.961-1.68c0.027 0.266 0.093 0.543 0.199 0.84-0.027-0.082-0.039-0.148-0.039-0.203 0-0.051-0.016-0.133-0.039-0.238-0.028-0.133-0.067-0.266-0.121-0.399z" inkscape:connector-curvature="0"/>
      <path id="path114" style="fill-rule:evenodd;fill:#d4c9ab" d="m19.164 26.774c-0.184 0.211-0.293 0.36-0.32 0.438-0.051 0.136 0.043 0.226 0.281 0.281 0.266 0.082 0.492 0.016 0.68-0.199l0.441-0.242c0-0.266 0.078-0.68 0.238-1.239 0.082-0.535-0.011-0.945-0.281-1.238-0.133 0.477-0.25 0.824-0.359 1.039-0.266 0.586-0.492 0.973-0.68 1.16zm-3.598-3.801c0.106-0.105 0.2-0.304 0.278-0.601l0.082 0.082c0-0.188-0.039-0.32-0.121-0.402l-0.481-0.399c-0.078-0.133-0.211-0.254-0.398-0.359-0.215-0.133-0.36-0.133-0.442 0-0.054 0.054 0 0.215 0.161 0.48 0.347 0.348 0.546 0.559 0.601 0.641 0.133 0.16 0.238 0.344 0.32 0.558zm-1.203-0.238c0.215 0.133 0.364 0.184 0.442 0.156l-0.442-0.558c-0.476-0.375-0.613-0.375-0.398 0 0.055 0.133 0.187 0.265 0.398 0.402zm2.321 0.238c0 0.161 0.015 0.282 0.043 0.36 0.023 0.082 0.093 0.121 0.199 0.121 0.187 0 0.386-0.082 0.597-0.242l0.243-0.039c-0.082-0.215-0.2-0.504-0.36-0.879-0.16-0.321-0.375-0.535-0.64-0.641-0.161-0.055-0.254-0.066-0.282-0.039-0.027 0-0.039 0.078-0.039 0.238 0.133 0.508 0.215 0.883 0.239 1.121zm1.601 0.399c0.16 0.242 0.281 0.226 0.36-0.039l0.32 0.039c0.082-0.586-0.012-1.199-0.281-1.84-0.293-0.691-0.692-1.133-1.2-1.32 0 0.242 0.067 0.535 0.2 0.883 0.214 0.503 0.32 0.785 0.32 0.839v0.879c0.055 0.188 0.148 0.375 0.281 0.559zm-1.879-2.039 0.117-0.199c-0.078-0.243-0.277-0.387-0.597-0.442-0.133 0.133-0.121 0.281 0.039 0.442 0.105 0.105 0.254 0.172 0.441 0.199zm-7.922 1.519-0.16-0.32c-0.211 0.375-0.226 0.707-0.039 1 0.078-0.133 0.145-0.359 0.199-0.68zm3.84-2.039 0.082-0.359c-0.32-0.133-0.656-0.188-1-0.16-0.402 0.054-0.656 0.226-0.761 0.519 0.132 0.133 0.402 0.133 0.8 0 0.426-0.105 0.719-0.105 0.879 0zm0.762-1.281c-0.32-0.211-0.695-0.32-1.121-0.32-0.481-0.028-0.852 0.082-1.121 0.32-0.184 0.188-0.25 0.32-0.199 0.402 0.082 0.079 0.468 0.051 1.16-0.082 0.48 0 0.746 0.055 0.8 0.161l0.481-0.481zm-3.281 1.68-0.121-0.321c-0.266 0.028-0.438 0.309-0.52 0.844l0.082 0.078c0.078-0.238 0.266-0.441 0.559-0.601zm1.64-2.321-0.242-0.156c-0.344 0-0.558 0.067-0.637 0.199 0.079 0.079 0.372 0.067 0.879-0.043z" inkscape:connector-curvature="0"/>
      <g id="g116">
        <g id="g118">
          <g id="g124">
            <path id="path132" style="fill-rule:evenodd;fill:url(#linearGradient126)" d="m8.965 27.294c0.426 0.293 0.879 0.558 1.359 0.801 0.321 0.16 0.641 0.293 0.961 0.398-0.238-0.105-0.48-0.215-0.719-0.32-0.613-0.321-1.148-0.614-1.601-0.879zm-3.719-4.879c0.106 0.293 0.211 0.57 0.32 0.84 0.266 0.636 0.598 1.226 1 1.758-0.269-0.426-0.546-0.946-0.839-1.559-0.188-0.375-0.348-0.719-0.481-1.039zm17.277 0.359c0.11-1.226-0.117-2.48-0.679-3.761-0.934-2.133-2.532-3.747-4.797-4.84-0.695-0.348-1.387-0.614-2.082-0.801 0.187 0.109 0.387 0.203 0.601 0.281 1.094 0.508 2.239 1.348 3.438 2.52 0.961 0.933 1.707 1.812 2.242 2.64 0.641 0.989 1.039 2.055 1.199 3.2 0.028 0.242 0.055 0.496 0.078 0.761z" inkscape:connector-curvature="0"/>
          </g>
        </g>
      </g>
      <path id="path134" style="fill-rule:evenodd;fill:#c0b69b" d="m19.523 21.614c0.137 0.613 0.27 0.734 0.403 0.359l-0.039-1.121c-0.403-0.453-0.707-0.718-0.922-0.8 0.238 0.32 0.426 0.839 0.558 1.562zm-3.117-3.519c0.024 0.05 0.051 0.105 0.078 0.16-0.132-0.055-0.238-0.094-0.32-0.121-0.027 0.05-0.012 0.132 0.039 0.238 0.242 0.137 0.402 0.226 0.481 0.281 0.613 0.32 1 0.602 1.16 0.84l0.32-0.121c-0.531-0.481-0.945-0.824-1.238-1.039-0.242-0.133-0.414-0.215-0.52-0.238z" inkscape:connector-curvature="0"/>
      <path id="path136" style="fill-rule:evenodd;fill:#4b4636" d="m11.684 24.934v-0.082l-0.118-0.078v0.078l0.118 0.082zm0.8-1.601c0.055 0.215 0.039 0.402-0.039 0.558l-0.16 0.161h-0.039l-0.242-0.118-0.117-0.043-0.043 0.043 0.082 0.118v0.043l-0.082 0.117-0.039 0.121-0.078 0.359 0.039 0.242 0.121 0.039 0.078 0.04 0.359-0.04 0.442-0.16c0.078-0.027 0.144-0.132 0.199-0.32h-0.039l-0.082 0.039-0.078-0.078 0.16 0.039 0.039-0.039 0.082-0.199h0.039v-0.121l-0.039-0.039-0.121-0.403c-0.082-0.105-0.227-0.226-0.442-0.359zm-0.918 1.441 0.239-0.441v-0.121l0.039-0.039v-0.121l-0.078 0.043v0.039l-0.039 0.039v0.082h-0.043l-0.161-0.043 0.204-0.078v-0.039l-0.043-0.082-0.079 0.082c-0.16-0.028-0.265-0.043-0.32-0.043l0.078 0.16v0.043l0.121 0.199v0.121l0.121-0.121 0.079-0.199-0.161 0.437v0.043l0.043 0.039zm1.84-0.562c0.024-0.028 0.039-0.051 0.039-0.078h-0.121l-0.121 0.039h-0.078l0.039 0.039-0.078 0.043v0.078l0.039 0.039 0.039-0.039c0.106-0.027 0.188-0.067 0.242-0.121zm-1.359 0.043 0.156 0.039h0.043v0.039h-0.082l-0.117-0.078zm-0.043-0.282h0.043l-0.082 0.04 0.039-0.04z" inkscape:connector-curvature="0"/>
      <g id="g138">
        <g id="g140">
          <g id="g146">
            <path id="path154" style="fill-rule:evenodd;fill:url(#linearGradient148)" d="m14.805 2.614-1 0.438-0.2 0.082 2.282 1.078 0.039-0.039 0.597-0.918 0.161-0.242-1.879-0.399z" inkscape:connector-curvature="0"/>
          </g>
        </g>
      </g>
      <g id="g156">
        <g id="g158">
          <g id="g164">
            <path id="path172" style="fill-rule:evenodd;fill:url(#linearGradient166)" d="m6.363 4.255-1.16 0.636-1.316-0.117-1 0.68-0.723 0.48 0.801 0.282c0.32 0.105 0.851 0.504 1.601 1.199 0.454 0.426 0.985 0.961 1.598 1.598 0.293 0.828 0.563 0.828 0.801 0 0-0.051 0.015-0.118 0.039-0.2 0.242-1.011 0.226-1.851-0.039-2.519-0.188-0.453-0.305-0.879-0.36-1.281-0.054-0.344-0.121-0.571-0.199-0.68-0.027-0.027-0.043-0.055-0.043-0.078z" inkscape:connector-curvature="0"/>
          </g>
        </g>
      </g>
      <g id="g174">
        <g id="g176">
          <g id="g182">
            <path id="path190" style="fill-rule:evenodd;fill:url(#linearGradient184)" d="m6.363 4.255 0.563-0.282 1.238-0.679c-0.16 0-0.32-0.016-0.48-0.043h-2.239c-1.039 0.027-1.773 0.066-2.199 0.121-0.215 0.055-0.359 0.105-0.441 0.16-0.215 0.16-0.387 0.387-0.52 0.68l-0.121 0.402 1.281 0.117 0.442 0.043 1.316 0.117 1.16-0.636z" inkscape:connector-curvature="0"/>
          </g>
        </g>
      </g>
      <g id="g192">
        <g id="g194">
          <g id="g200">
            <path id="path208" style="fill-rule:evenodd;fill:url(#linearGradient202)" d="m16.684 1.454c0.16-0.082 0.347-0.199 0.562-0.359 0.106-0.11 0.227-0.243 0.359-0.403-0.082-0.023-0.132-0.011-0.16 0.043-0.027 0.051-0.054 0.106-0.082 0.156l0.121-0.398c-0.347-0.027-0.812-0.012-1.398 0.039-0.375 0.027-0.668 0.055-0.883 0.082-0.265 0.027-0.437 0.039-0.519 0.039-0.051 0.32 0.121 0.574 0.519 0.762 0.348 0.133 0.707 0.187 1.082 0.16 0.133-0.027 0.266-0.07 0.399-0.121z" inkscape:connector-curvature="0"/>
          </g>
        </g>
      </g>
      <g id="g210">
        <g id="g212">
          <g id="g218">
            <path id="path226" style="fill-rule:evenodd;fill:url(#linearGradient220)" d="m30.566 10.891v-1.757c-0.242-0.082-0.586-0.121-1.043-0.121-0.293 0-0.543 0.066-0.757 0.203l-0.082 0.039-0.2 0.199c-0.027 0 0.094 0.133 0.36 0.398l0.961 1.243 0.761 0.039v-0.243z" inkscape:connector-curvature="0"/>
          </g>
        </g>
      </g>
      <g id="g228">
        <g id="g230">
          <g id="g236">
            <path id="path244" style="fill-rule:evenodd;fill:url(#linearGradient238)" d="m28.246 4.173c-0.027-0.028-0.055-0.055-0.082-0.082-0.266-0.266-1.027-0.625-2.277-1.078-0.43 0.187-0.84 0.414-1.242 0.679-0.161 0.133-0.321 0.266-0.481 0.399l-0.68 0.683-0.238 0.239-0.84 0.8 2.68-0.519c1.066-0.266 1.906-0.36 2.519-0.281l0.442-0.321c0.211-0.211 0.277-0.386 0.199-0.519z" inkscape:connector-curvature="0"/>
          </g>
        </g>
      </g>
      <g id="g246">
        <g id="g248">
          <g id="g254">
            <path id="path262" style="fill-rule:evenodd;fill:url(#linearGradient256)" d="m31.844 4.692c-0.453-0.293-0.879-0.371-1.278-0.238-0.347 0.133-0.613 0.371-0.8 0.719-0.055 0.105-0.106 0.226-0.161 0.359 0.266 0.027 0.625 0.016 1.079-0.039 0.535-0.055 0.894-0.082 1.082-0.082l0.121-0.676c-0.028 0-0.043-0.015-0.043-0.043z" inkscape:connector-curvature="0"/>
          </g>
        </g>
      </g>
      <g id="g264">
        <g id="g266">
          <g id="g272">
            <path id="path280" style="fill-rule:evenodd;fill:url(#linearGradient274)" d="m23.324 2.934c-0.16-0.242-0.414-0.359-0.758-0.359-0.402 0.027-0.707 0.051-0.921 0.078v0.039c-0.028 0.242 0.039 0.387 0.199 0.442 0.16 0.054 0.347 0.015 0.562-0.118h0.957c-0.023-0.031-0.039-0.054-0.039-0.082z" inkscape:connector-curvature="0"/>
          </g>
        </g>
      </g>
      <g id="g282">
        <g id="g284">
          <g id="g290">
            <path id="path298" style="fill-rule:evenodd;fill:url(#linearGradient292)" d="m16.684 1.454c0.214 0.32 0.746 0.574 1.601 0.758l0.121-0.117c0.239-0.028 0.664-0.161 1.278-0.403-0.051-0.078-0.106-0.16-0.161-0.238-0.265-0.215-0.691-0.348-1.277-0.402-0.375-0.024-0.707-0.012-1 0.043-0.215 0.16-0.402 0.277-0.562 0.359z" inkscape:connector-curvature="0"/>
          </g>
        </g>
      </g>
    </g>
  </g>
<metadata><rdf:RDF><cc:Work><dc:format>image/svg+xml</dc:format><dc:type rdf:resource="http://purl.org/dc/dcmitype/StillImage"/><cc:license rdf:resource="http://creativecommons.org/licenses/publicdomain/"/><dc:publisher><cc:Agent rdf:about="http://openclipart.org/"><dc:title>Openclipart</dc:title></cc:Agent></dc:publisher></cc:Work><cc:License rdf:about="http://creativecommons.org/licenses/publicdomain/"><cc:permits rdf:resource="http://creativecommons.org/ns#Reproduction"/><cc:permits rdf:resource="http://creativecommons.org/ns#Distribution"/><cc:permits rdf:resource="http://creativecommons.org/ns#DerivativeWorks"/></cc:License></rdf:RDF></metadata></svg>
